<svg width="270" height="160" viewBox="0 0 270 160" fill="none" xmlns="http://www.w3.org/2000/svg">
<rect width="270" height="160" rx="10" fill="#54C8E8"/>
<g clip-path="url(#clip0_529_54)">
<path d="M157.531 70.1708C156.928 70.1708 156.438 70.6608 156.438 71.2646C156.438 71.8683 156.928 72.3583 157.531 72.3583C158.135 72.3583 158.625 71.8683 158.625 71.2646C158.625 70.6608 158.135 70.1708 157.531 70.1708Z" fill="white"/>
<path d="M146.266 61.4211C145.662 61.4211 145.172 61.9111 145.172 62.5148C145.172 63.1186 145.662 63.6086 146.266 63.6086C146.87 63.6086 147.36 63.1186 147.36 62.5148C147.36 61.9111 146.87 61.4211 146.266 61.4211Z" fill="white"/>
<path d="M146.266 65.796C145.662 65.796 145.172 66.286 145.172 66.8897C145.172 67.4935 145.662 67.9835 146.266 67.9835C146.87 67.9835 147.36 67.4935 147.36 66.8897C147.36 66.286 146.87 65.796 146.266 65.796Z" fill="white"/>
<path d="M141.891 63.6086C141.287 63.6086 140.797 64.0986 140.797 64.7023C140.797 65.3061 141.287 65.7961 141.891 65.7961C142.495 65.7961 142.985 65.3061 142.985 64.7023C142.985 64.0985 142.495 63.6086 141.891 63.6086Z" fill="white"/>
<path d="M155.722 59.2357C155.212 57.6458 154.474 56.041 153.521 54.4612L151.036 49.5358C150.849 49.1165 150.716 48.6757 150.641 48.2264C150.509 47.4304 150.559 46.6059 150.785 45.842C150.789 45.8275 150.793 45.8128 150.797 45.7981C150.808 45.7565 150.871 45.5315 151.214 44.3299C151.707 42.5955 152.454 39.9767 152.454 39.9765C152.461 39.9506 152.468 39.9244 152.473 39.898C152.676 38.9163 152.653 37.908 152.404 36.8997C151.844 34.6419 150.03 32.8067 147.784 32.2239C145.751 31.6975 143.655 32.1149 142.034 33.3698C140.414 34.6235 139.485 36.516 139.485 38.5622C139.485 39.0107 139.531 39.4601 139.621 39.8981C139.627 39.9244 139.633 39.9505 139.64 39.9762L140.885 44.3484C140.886 44.3518 140.887 44.3553 140.888 44.3588L141.293 45.7814L141.478 46.6748C141.546 47.1893 141.538 47.7112 141.452 48.2274C141.378 48.6758 141.246 49.1158 141.059 49.5358L138.573 54.4613C138.073 55.2905 137.634 56.1266 137.254 56.9627L136.817 56.0983C136.631 55.679 136.498 55.2381 136.423 54.7889C136.291 53.9929 136.34 53.1684 136.567 52.4045C136.571 52.39 136.575 52.3752 136.579 52.3604C136.59 52.3183 136.653 52.0924 136.995 50.8924C137.489 49.158 138.235 46.5392 138.235 46.5391C138.243 46.5131 138.249 46.4869 138.255 46.4605C138.458 45.4788 138.435 44.4706 138.186 43.4622C137.626 41.2044 135.812 39.3692 133.566 38.7864C131.533 38.2599 129.437 38.6774 127.815 39.9324C126.195 41.186 125.266 43.0785 125.266 45.1247C125.266 45.5732 125.312 46.0226 125.403 46.4606C125.408 46.4869 125.415 46.513 125.422 46.5387L126.667 50.9109C126.668 50.9143 126.669 50.9178 126.67 50.9213L127.075 52.3438L127.259 53.2372C127.328 53.7517 127.319 54.2736 127.233 54.7898C127.159 55.2383 127.027 55.6783 126.84 56.0983L126.404 56.9622C126.024 56.1258 125.584 55.2901 125.085 54.4615L122.599 49.536C122.413 49.1167 122.28 48.6759 122.204 48.2266C122.072 47.4306 122.122 46.6061 122.348 45.8423C122.352 45.8279 122.356 45.8132 122.36 45.7987C122.371 45.7577 122.434 45.5341 122.777 44.3302C123.27 42.5959 124.017 39.977 124.017 39.9769C124.025 39.9509 124.031 39.9247 124.036 39.8983C124.239 38.9166 124.216 37.9084 123.968 36.9C123.407 34.6422 121.594 32.807 119.347 32.2242C117.314 31.6975 115.218 32.115 113.597 33.3698C111.977 34.6234 111.048 36.516 111.048 38.5622C111.048 39.0107 111.094 39.4601 111.184 39.8981C111.19 39.9244 111.196 39.9505 111.203 39.9762L112.448 44.3484C112.449 44.3518 112.45 44.3553 112.451 44.3588L112.856 45.7813L113.041 46.6747C113.11 47.1892 113.101 47.7111 113.015 48.2273C112.941 48.674 112.81 49.1124 112.624 49.5309L110.075 54.4562C107.335 58.9954 106.42 63.5704 107.355 68.0548C107.968 70.9903 109.375 73.8492 111.537 76.5513L111.659 76.7035C112.284 77.4871 113.218 77.9364 114.222 77.9364H120.934C121.459 77.9364 122.013 77.7582 122.504 77.4965C123.262 79.4228 124.374 81.3074 125.823 83.1174L125.943 83.2659C126.568 84.0495 127.502 84.4988 128.505 84.4988H135.153C135.819 84.4988 136.454 84.2995 136.989 83.9367C139.872 86.5289 143.596 87.9987 147.36 87.9987C151.45 87.9987 155.354 86.3477 158.351 83.3499C161.349 80.3522 163 76.4485 163 72.3584C163 67.1389 160.224 62.1605 155.722 59.2357ZM143.373 35.0997C144.455 34.2622 145.863 33.986 147.235 34.3414C148.693 34.7196 149.917 35.9595 150.281 37.4249C150.448 38.0994 150.467 38.7697 150.339 39.4179C150.257 39.7045 149.763 41.4374 149.336 42.937H142.758L141.756 39.4182C141.7 39.1372 141.672 38.8494 141.672 38.5621C141.672 37.198 142.292 35.936 143.373 35.0997ZM148.714 45.1245C148.702 45.1669 148.693 45.1994 148.686 45.2248C148.487 45.8981 148.385 46.6039 148.382 47.312H143.709C143.707 46.9864 143.684 46.661 143.639 46.3377C143.636 46.3144 143.632 46.2913 143.627 46.2682L143.427 45.2993C143.422 45.2729 143.415 45.2468 143.408 45.2209L143.38 45.1245H148.714V45.1245ZM140.466 55.5576C140.481 55.5334 140.495 55.5088 140.507 55.4838L143.023 50.4985C143.03 50.4841 143.037 50.4695 143.044 50.4547C143.184 50.1437 143.302 49.8244 143.398 49.4995H148.696C148.793 49.8249 148.911 50.1442 149.051 50.4547C149.057 50.4696 149.064 50.4842 149.072 50.4985L151.587 55.4838C151.6 55.5088 151.614 55.5334 151.628 55.5575C152.067 56.282 152.454 57.0104 152.791 57.7381C151.05 57.0676 149.21 56.7182 147.36 56.7182C144.261 56.7182 141.193 57.7024 138.587 59.5122C139.039 58.2029 139.669 56.8741 140.466 55.5576ZM129.154 41.6622C130.237 40.8246 131.645 40.5484 133.017 40.9038C134.475 41.282 135.699 42.5219 136.063 43.9873C136.229 44.6618 136.248 45.3321 136.12 45.9803C136.038 46.2669 135.544 47.9998 135.117 49.4994H128.539L127.537 45.9805C127.482 45.6996 127.454 45.4118 127.454 45.1245C127.454 43.7604 128.074 42.4984 129.154 41.6622ZM134.496 51.6869C134.484 51.7293 134.475 51.7619 134.468 51.7872C134.269 52.4606 134.167 53.1663 134.163 53.8744H129.491C129.489 53.5488 129.466 53.2234 129.421 52.9001C129.417 52.8768 129.414 52.8537 129.409 52.8306L129.209 51.8617C129.203 51.8353 129.197 51.8092 129.189 51.7833L129.162 51.6869H134.496ZM114.936 35.0998C116.018 34.2622 117.426 33.986 118.798 34.3414C120.256 34.7196 121.48 35.9595 121.844 37.425C122.011 38.0996 122.03 38.7698 121.902 39.418C121.82 39.7046 121.326 41.4375 120.899 42.9371H114.321L113.319 39.4182C113.263 39.1373 113.235 38.8495 113.235 38.5622C113.235 37.198 113.855 35.936 114.936 35.0998ZM120.277 45.1245C120.265 45.1671 120.256 45.1996 120.25 45.225C120.051 45.8983 119.948 46.604 119.945 47.312H115.272C115.27 46.9864 115.247 46.661 115.202 46.3377C115.199 46.3144 115.195 46.2913 115.19 46.2682L114.99 45.2993C114.985 45.2729 114.978 45.2468 114.971 45.2209L114.943 45.1245H120.277V45.1245ZM121.811 75.3533C121.527 75.5745 121.135 75.7488 120.934 75.7488H114.222V75.7489C113.887 75.7489 113.576 75.5996 113.368 75.3381L113.245 75.1847C109.826 70.9126 106.829 64.0394 111.965 55.5576C111.977 55.5368 111.989 55.5154 112.001 55.4938L114.581 50.5086C114.59 50.4909 114.598 50.473 114.607 50.4547C114.747 50.1437 114.865 49.8244 114.961 49.4995H120.259C120.356 49.8249 120.474 50.1442 120.614 50.4547C120.62 50.4696 120.627 50.4842 120.635 50.4985L123.15 55.4838C123.163 55.5088 123.176 55.5332 123.191 55.5573C123.997 56.8907 124.634 58.237 125.09 59.5662L124.355 61.0234C121.459 65.823 120.606 70.6394 121.811 75.3533ZM135.153 82.3113H128.505C128.171 82.3113 127.86 82.162 127.649 81.8969L127.528 81.7472C125.918 79.7354 124.773 77.6348 124.123 75.503C122.794 71.1469 123.509 66.6442 126.248 62.1199C126.263 62.0958 126.276 62.0713 126.289 62.0462L128.805 57.061C128.812 57.0465 128.819 57.0319 128.825 57.0171C128.965 56.7061 129.084 56.3868 129.18 56.0619H134.478C134.575 56.3873 134.693 56.7066 134.832 57.0171C134.839 57.0319 134.846 57.0465 134.853 57.0608L136.811 60.9405C133.565 63.944 131.72 68.0587 131.72 72.3584C131.72 75.9723 133.016 79.4531 135.393 82.2846C135.315 82.302 135.235 82.3113 135.153 82.3113ZM147.36 85.8112C143.845 85.8112 140.361 84.308 137.801 81.6871C137.798 81.684 137.795 81.681 137.792 81.6779L137.787 81.6728C135.285 79.1057 133.907 75.7981 133.907 72.3584C133.907 68.4278 135.715 64.6682 138.868 62.0441C141.3 60.0201 144.315 58.9056 147.36 58.9056C149.712 58.9056 152.051 59.5661 154.124 60.8158C154.124 60.8159 154.125 60.816 154.125 60.8161C158.25 63.2998 160.813 67.7226 160.813 72.3585C160.813 79.6505 154.652 85.8112 147.36 85.8112Z" fill="white"/>
<path d="M157.442 74.0851C156.862 73.9147 156.255 74.2462 156.084 74.8255C154.975 78.5943 151.224 81.4364 147.36 81.4364C146.756 81.4364 146.266 81.9262 146.266 82.5301C146.266 83.1341 146.756 83.6239 147.36 83.6239C152.157 83.6239 156.81 80.107 158.182 75.4432C158.353 74.8635 158.022 74.2555 157.442 74.0851Z" fill="white"/>
</g>
<path d="M83.88 123V109H90.44C92.12 109 93.4 109.333 94.28 110C95.16 110.653 95.6 111.533 95.6 112.64C95.6 113.387 95.4267 114.027 95.08 114.56C94.7333 115.08 94.2667 115.487 93.68 115.78C93.1067 116.06 92.48 116.2 91.8 116.2L92.16 115.48C92.9467 115.48 93.6533 115.627 94.28 115.92C94.9067 116.2 95.4 116.613 95.76 117.16C96.1333 117.707 96.32 118.387 96.32 119.2C96.32 120.4 95.86 121.333 94.94 122C94.02 122.667 92.6533 123 90.84 123H83.88ZM86.48 120.96H90.68C91.6533 120.96 92.4 120.8 92.92 120.48C93.44 120.16 93.7 119.647 93.7 118.94C93.7 118.247 93.44 117.74 92.92 117.42C92.4 117.087 91.6533 116.92 90.68 116.92H86.28V114.9H90.16C91.0667 114.9 91.76 114.74 92.24 114.42C92.7333 114.1 92.98 113.62 92.98 112.98C92.98 112.327 92.7333 111.84 92.24 111.52C91.76 111.2 91.0667 111.04 90.16 111.04H86.48V120.96ZM105.855 123.2C104.762 123.2 103.755 123.02 102.835 122.66C101.915 122.3 101.115 121.8 100.435 121.16C99.7548 120.507 99.2282 119.747 98.8548 118.88C98.4815 118 98.2948 117.04 98.2948 116C98.2948 114.96 98.4815 114.007 98.8548 113.14C99.2282 112.26 99.7548 111.5 100.435 110.86C101.115 110.207 101.915 109.7 102.835 109.34C103.755 108.98 104.755 108.8 105.835 108.8C106.928 108.8 107.928 108.98 108.835 109.34C109.755 109.7 110.555 110.207 111.235 110.86C111.915 111.5 112.442 112.26 112.815 113.14C113.188 114.007 113.375 114.96 113.375 116C113.375 117.04 113.188 118 112.815 118.88C112.442 119.76 111.915 120.52 111.235 121.16C110.555 121.8 109.755 122.3 108.835 122.66C107.928 123.02 106.935 123.2 105.855 123.2ZM105.835 120.92C106.542 120.92 107.195 120.8 107.795 120.56C108.395 120.32 108.915 119.98 109.355 119.54C109.795 119.087 110.135 118.567 110.375 117.98C110.628 117.38 110.755 116.72 110.755 116C110.755 115.28 110.628 114.627 110.375 114.04C110.135 113.44 109.795 112.92 109.355 112.48C108.915 112.027 108.395 111.68 107.795 111.44C107.195 111.2 106.542 111.08 105.835 111.08C105.128 111.08 104.475 111.2 103.875 111.44C103.288 111.68 102.768 112.027 102.315 112.48C101.875 112.92 101.528 113.44 101.275 114.04C101.035 114.627 100.915 115.28 100.915 116C100.915 116.707 101.035 117.36 101.275 117.96C101.528 118.56 101.875 119.087 102.315 119.54C102.755 119.98 103.275 120.32 103.875 120.56C104.475 120.8 105.128 120.92 105.835 120.92ZM119.201 123L114.561 109H117.261L121.401 121.66H120.061L124.361 109H126.761L130.941 121.66H129.641L133.881 109H136.361L131.721 123H128.961L125.141 111.58H125.861L121.981 123H119.201ZM138.679 123V109H141.279V120.8H148.599V123H138.679ZM150.852 123V109H153.452V123H150.852ZM157.439 123V109H159.579L168.359 119.78H167.299V109H169.879V123H167.739L158.959 112.22H160.019V123H157.439ZM180.37 123.2C179.277 123.2 178.27 123.027 177.35 122.68C176.443 122.32 175.65 121.82 174.97 121.18C174.29 120.527 173.763 119.76 173.39 118.88C173.017 118 172.83 117.04 172.83 116C172.83 114.96 173.017 114 173.39 113.12C173.763 112.24 174.29 111.48 174.97 110.84C175.663 110.187 176.47 109.687 177.39 109.34C178.31 108.98 179.317 108.8 180.41 108.8C181.597 108.8 182.663 108.993 183.61 109.38C184.57 109.767 185.377 110.333 186.03 111.08L184.39 112.68C183.843 112.133 183.25 111.733 182.61 111.48C181.983 111.213 181.29 111.08 180.53 111.08C179.797 111.08 179.117 111.2 178.49 111.44C177.863 111.68 177.323 112.02 176.87 112.46C176.417 112.9 176.063 113.42 175.81 114.02C175.57 114.62 175.45 115.28 175.45 116C175.45 116.707 175.57 117.36 175.81 117.96C176.063 118.56 176.417 119.087 176.87 119.54C177.323 119.98 177.857 120.32 178.47 120.56C179.083 120.8 179.763 120.92 180.51 120.92C181.203 120.92 181.87 120.813 182.51 120.6C183.163 120.373 183.783 120 184.37 119.48L185.85 121.42C185.117 122.007 184.263 122.453 183.29 122.76C182.33 123.053 181.357 123.2 180.37 123.2ZM183.39 121.08V115.84H185.85V121.42L183.39 121.08Z" fill="white"/>
<defs>
<clipPath id="clip0_529_54">
<rect width="56" height="56" fill="white" transform="translate(107 32)"/>
</clipPath>
</defs>
</svg>
