<svg width="270" height="160" viewBox="0 0 270 160" fill="none" xmlns="http://www.w3.org/2000/svg">
<rect width="270" height="160" rx="10" fill="#FF4438"/>
<path d="M154.799 40.2009C149.51 34.9124 142.479 32 135 32C127.521 32 120.49 34.9124 115.201 40.2009C109.913 45.4893 107 52.5206 107 59.9996C107 68.3488 110.655 76.1407 117.048 81.4835L116.409 83.8689C116.183 84.713 116.3 85.5969 116.739 86.3573C117.178 87.1178 117.885 87.6613 118.729 87.8875C119.012 87.9634 119.297 87.9997 119.577 87.9997C121.026 87.9996 122.355 87.0315 122.748 85.5674L122.839 85.2258C126.61 87.0434 130.787 87.9991 135 87.9991C139.202 87.9991 143.377 87.0415 147.159 85.2201L147.252 85.5674C147.479 86.4117 148.022 87.1185 148.782 87.5575C149.29 87.8504 149.852 88.0001 150.421 88.0001C150.705 88.0001 150.99 87.9628 151.271 87.8876C153.018 87.4193 154.059 85.6167 153.591 83.8691L152.952 81.4842C155.99 78.9437 158.493 75.7376 160.215 72.1723C162.036 68.3991 162.999 64.1899 162.999 59.9998C162.999 52.5206 160.087 45.4893 154.799 40.2009ZM119.295 85.7746C119.015 85.6996 118.78 85.5181 118.633 85.2637C118.486 85.0092 118.447 84.715 118.522 84.4352L123.051 67.5319C123.126 67.2521 123.307 67.017 123.562 66.8701C123.732 66.7718 123.92 66.7215 124.11 66.7215C124.204 66.7215 124.298 66.7338 124.39 66.7586H124.39C124.67 66.8336 124.905 67.0151 125.052 67.2696C125.199 67.5241 125.239 67.8183 125.164 68.0981L120.635 85.0014C120.479 85.5836 119.878 85.9303 119.295 85.7746V85.7746ZM129.824 59.156L129.541 60.2124C129.385 60.795 128.784 61.1415 128.202 60.9858L126.09 60.4198C126.089 60.4197 126.089 60.4196 126.089 60.4196C126.089 60.4196 126.088 60.4194 126.088 60.4194L123.976 59.8534C123.696 59.7784 123.461 59.597 123.314 59.3426C123.167 59.088 123.128 58.7938 123.203 58.514L123.486 57.4575L129.824 59.156ZM135 85.8116C130.976 85.8116 126.988 84.8664 123.416 83.0719L124.754 78.0808C127.869 79.8506 131.383 80.7803 135 80.7803C138.612 80.7803 142.125 79.85 145.246 78.0787L146.582 83.0663C142.998 84.8645 139.012 85.8116 135 85.8116ZM144.629 71.5503C144.349 71.6252 144.055 71.5856 143.8 71.4388C143.546 71.2919 143.364 71.0568 143.289 70.7769L139.892 58.0994C139.516 56.6954 139.712 55.2231 140.446 53.9536C140.991 53.0086 141.783 52.2647 142.731 51.7911L147.798 70.7012L144.629 71.5503ZM150.705 85.7746C150.425 85.8496 150.131 85.8099 149.876 85.663C149.622 85.5161 149.44 85.2811 149.365 85.0012L146.251 73.3802L148.365 72.814L151.478 84.435C151.634 85.0175 151.287 85.6184 150.705 85.7746V85.7746ZM152.323 79.1341L150.809 73.4856C154.019 69.7243 155.781 64.9573 155.781 59.9996C155.781 50.4922 149.355 42.212 140.154 39.8636C139.568 39.7141 138.973 40.0677 138.824 40.6528C138.675 41.2381 139.028 41.8337 139.613 41.9831C147.845 44.0842 153.593 51.4929 153.593 59.9997C153.593 63.9151 152.365 67.6973 150.102 70.8453L144.533 50.0623C144.376 49.4789 143.776 49.1323 143.193 49.2889C139.115 50.3815 136.687 54.5879 137.78 58.6656L141.177 71.3432C141.403 72.1874 141.946 72.8942 142.707 73.3332C143.138 73.5824 143.609 73.7278 144.09 73.7659L144.659 75.8871C141.746 77.6594 138.423 78.5931 135 78.5931C131.571 78.5931 128.247 77.6601 125.341 75.889L127.277 68.6642C127.503 67.82 127.386 66.9363 126.947 66.1758C126.698 65.7444 126.362 65.383 125.965 65.1096L126.579 62.8158L127.636 63.0989C127.919 63.1748 128.204 63.211 128.484 63.211C129.933 63.211 131.262 62.2428 131.654 60.7787L132.218 58.6735C132.219 58.6709 132.22 58.6684 132.221 58.6658C132.221 58.6631 132.222 58.6605 132.223 58.6579L133.919 52.3269C134.076 51.7434 133.729 51.1438 133.146 50.9873C132.562 50.8309 131.963 51.1773 131.806 51.7607L130.391 57.0431L128.278 56.477L129.693 51.1946C129.85 50.6111 129.504 50.0114 128.92 49.855C128.336 49.6984 127.737 50.045 127.581 50.6284L126.165 55.9108L124.052 55.3445L125.467 50.0623C125.624 49.4788 125.278 48.8791 124.694 48.7227C124.11 48.5662 123.511 48.9127 123.355 49.496L121.659 55.8238C121.658 55.8274 121.657 55.831 121.656 55.8348C121.655 55.8385 121.654 55.8421 121.653 55.8458L121.09 57.9477C120.864 58.792 120.981 59.6757 121.42 60.4363C121.859 61.1968 122.566 61.7401 123.41 61.9663L124.467 62.2494L123.852 64.5431C123.371 64.5811 122.9 64.7263 122.469 64.9755C121.708 65.4146 121.165 66.1214 120.938 66.9655L119.899 70.8456C117.636 67.6991 116.407 63.9163 116.407 59.9995C116.407 51.493 122.156 44.0844 130.386 41.9831C130.972 41.8337 131.325 41.2381 131.176 40.6528C131.026 40.0676 130.431 39.7146 129.845 39.8636C120.645 42.2124 114.22 50.4924 114.22 59.9995C114.22 64.959 115.981 69.727 119.191 73.4858L117.678 79.1329C112.264 74.2376 109.188 67.3529 109.188 59.9995C109.188 45.7668 120.767 34.1875 135 34.1875C149.233 34.1875 160.812 45.7668 160.812 59.9996C160.812 67.3607 157.737 74.2448 152.323 79.1341V79.1341Z" fill="white"/>
<path d="M135 39.2188H134.999C134.395 39.2188 133.906 39.7084 133.906 40.3125C133.906 40.9166 134.396 41.4063 135 41.4063C135.604 41.4063 136.094 40.9166 136.094 40.3125C136.094 39.7084 135.604 39.2188 135 39.2188Z" fill="white"/>
<path d="M115.36 123.2C114.293 123.2 113.3 123.027 112.38 122.68C111.473 122.32 110.68 121.82 110 121.18C109.333 120.527 108.813 119.76 108.44 118.88C108.067 118 107.88 117.04 107.88 116C107.88 114.96 108.067 114 108.44 113.12C108.813 112.24 109.34 111.48 110.02 110.84C110.7 110.187 111.493 109.687 112.4 109.34C113.307 108.98 114.3 108.8 115.38 108.8C116.527 108.8 117.573 109 118.52 109.4C119.467 109.787 120.267 110.367 120.92 111.14L119.24 112.72C118.733 112.173 118.167 111.767 117.54 111.5C116.913 111.22 116.233 111.08 115.5 111.08C114.767 111.08 114.093 111.2 113.48 111.44C112.88 111.68 112.353 112.02 111.9 112.46C111.46 112.9 111.113 113.42 110.86 114.02C110.62 114.62 110.5 115.28 110.5 116C110.5 116.72 110.62 117.38 110.86 117.98C111.113 118.58 111.46 119.1 111.9 119.54C112.353 119.98 112.88 120.32 113.48 120.56C114.093 120.8 114.767 120.92 115.5 120.92C116.233 120.92 116.913 120.787 117.54 120.52C118.167 120.24 118.733 119.82 119.24 119.26L120.92 120.86C120.267 121.62 119.467 122.2 118.52 122.6C117.573 123 116.52 123.2 115.36 123.2ZM121.338 123L127.638 109H130.198L136.518 123H133.798L128.378 110.38H129.418L124.018 123H121.338ZM124.238 119.76L124.938 117.72H132.498L133.198 119.76H124.238ZM140.879 115.44H147.859V117.64H140.879V115.44ZM141.099 123H138.499V109H148.719V111.18H141.099V123ZM153.833 114.82H160.793V116.96H153.833V114.82ZM154.033 120.82H161.933V123H151.433V109H161.653V111.18H154.033V120.82Z" fill="white"/>
</svg>
