<svg width="270" height="160" viewBox="0 0 270 160" fill="none" xmlns="http://www.w3.org/2000/svg">
<rect width="270" height="160" rx="10" fill="#FF6C0E"/>
<g clip-path="url(#clip0_529_53)">
<path d="M118.649 47.0691C118.649 45.344 117.245 43.9405 115.52 43.9405C114.763 43.9405 114.052 44.2062 113.492 44.6852C113.169 44.5748 112.827 44.5177 112.481 44.5177C110.756 44.5177 109.352 45.9211 109.352 47.6463C109.352 48.978 110.21 50.1531 111.427 50.5916C111.793 51.9203 113.018 52.891 114.443 52.891C116.168 52.891 117.572 51.4875 117.572 49.7624C117.572 49.6558 117.566 49.5497 117.555 49.4445C118.241 48.8561 118.649 47.9903 118.649 47.0691ZM116.247 48.3671L115.671 48.6913L115.865 49.3234C115.909 49.465 115.931 49.6126 115.931 49.7621C115.931 50.5827 115.264 51.2502 114.443 51.2502C113.667 51.2502 113.015 50.6443 112.96 49.8708L112.913 49.214L112.261 49.1178C111.538 49.0112 110.993 48.3785 110.993 47.6461C110.993 46.8256 111.661 46.1581 112.481 46.1581C112.755 46.1581 113.022 46.2329 113.254 46.3744L113.886 46.7602L114.334 46.1704C114.619 45.7957 115.051 45.5809 115.52 45.5809C116.341 45.5809 117.008 46.2485 117.008 47.0689C117.008 47.6058 116.717 48.1033 116.247 48.3671Z" fill="white"/>
<path d="M127.399 36.5748C127.399 34.9869 126.107 33.6952 124.519 33.6952C123.839 33.6952 123.2 33.9278 122.691 34.3485C122.407 34.2572 122.109 34.21 121.808 34.21C120.22 34.21 118.928 35.5018 118.928 37.0896C118.928 37.1876 118.933 37.2855 118.943 37.383C118.536 37.8903 118.31 38.5248 118.31 39.1834C118.31 40.7713 119.602 42.063 121.19 42.063C121.686 42.063 122.172 41.9339 122.601 41.6932C122.907 41.8011 123.231 41.857 123.558 41.857C125.146 41.857 126.438 40.5652 126.438 38.9774C126.438 38.8948 126.434 38.8126 126.427 38.7308C127.037 38.19 127.399 37.4071 127.399 36.5748ZM125.125 37.6556L124.548 37.9798L124.743 38.6121C124.779 38.7298 124.797 38.8527 124.797 38.9774C124.797 39.6606 124.241 40.2164 123.558 40.2164C123.339 40.2164 123.123 40.158 122.934 40.0475L122.433 39.754L121.989 40.1292C121.763 40.321 121.486 40.4224 121.19 40.4224C120.507 40.4224 119.951 39.8665 119.951 39.1834C119.951 38.8296 120.103 38.4917 120.368 38.2563L120.752 37.9164L120.614 37.4228C120.584 37.3138 120.569 37.2017 120.569 37.0897C120.569 36.4066 121.124 35.8507 121.808 35.8507C122.036 35.8507 122.258 35.913 122.452 36.0308L123.084 36.4164L123.532 35.8266C123.769 35.5146 124.129 35.3358 124.519 35.3358C125.202 35.3358 125.758 35.8916 125.758 36.5748C125.758 37.0218 125.515 37.4359 125.125 37.6556Z" fill="white"/>
<path d="M160.648 42.6456C160.648 41.0577 159.356 39.766 157.768 39.766C157.089 39.766 156.449 39.9986 155.94 40.4194C155.656 40.328 155.358 40.2808 155.057 40.2808C153.469 40.2808 152.177 41.5726 152.177 43.1604C152.177 43.2584 152.182 43.3563 152.192 43.4539C151.786 43.9613 151.559 44.5956 151.559 45.2542C151.559 46.8421 152.851 48.1338 154.439 48.1338C154.936 48.1338 155.422 48.0047 155.85 47.764C156.156 47.8719 156.48 47.9278 156.807 47.9278C158.395 47.9278 159.687 46.636 159.687 45.0482C159.687 44.9657 159.683 44.8834 159.676 44.8017C160.287 44.2611 160.648 43.478 160.648 42.6456ZM158.374 43.7265L157.797 44.0508L157.992 44.6831C158.028 44.8007 158.046 44.9235 158.046 45.0482C158.046 45.7314 157.49 46.2872 156.807 46.2872C156.588 46.2872 156.372 46.2288 156.183 46.1183L155.682 45.8248L155.238 46.2C155.012 46.3918 154.735 46.4932 154.439 46.4932C153.756 46.4932 153.2 45.9373 153.2 45.2542C153.2 44.9006 153.352 44.5626 153.617 44.3271L154 43.9873L153.863 43.4938C153.833 43.3846 153.818 43.2725 153.818 43.1604C153.818 42.4773 154.373 41.9214 155.057 41.9214C155.285 41.9214 155.507 41.9837 155.7 42.1015L156.333 42.4873L156.781 41.8974C157.018 41.5853 157.378 41.4065 157.768 41.4065C158.451 41.4065 159.007 41.9623 159.007 42.6455C159.007 43.0927 158.765 43.5068 158.374 43.7265Z" fill="white"/>
<path d="M151.916 35.5609C151.491 34.9347 150.872 34.496 150.161 34.3022C150.07 33.9721 149.926 33.6576 149.731 33.3712C149.261 32.68 148.551 32.213 147.73 32.0563C146.909 31.8997 146.076 32.0722 145.385 32.5417C144.283 33.2902 143.794 34.6604 144.115 35.913C143.222 36.963 143.107 38.5217 143.908 39.7001C144.377 40.3913 145.088 40.8583 145.909 41.015C146.107 41.0527 146.305 41.0714 146.502 41.0714C147.123 41.0713 147.729 40.8861 148.254 40.5294C148.342 40.4697 148.427 40.4057 148.508 40.3377C149.38 40.5741 150.325 40.4248 151.087 39.907H151.087C152.514 38.9375 152.886 36.9879 151.916 35.5609ZM150.79 37.5981C150.716 37.9885 150.494 38.3265 150.165 38.55H150.165C149.721 38.8518 149.146 38.8901 148.664 38.6502L148.071 38.3556L147.658 38.8718C147.565 38.9874 147.456 39.0886 147.332 39.1727C147.003 39.396 146.607 39.4781 146.217 39.4034C145.826 39.3288 145.488 39.1068 145.265 38.778C144.828 38.1358 144.963 37.2563 145.572 36.7757L146.089 36.3677L145.802 35.7748C145.484 35.1168 145.701 34.3102 146.307 33.8986C146.556 33.7291 146.845 33.6411 147.14 33.6411C147.234 33.6411 147.328 33.6499 147.422 33.6679C147.813 33.7425 148.151 33.9645 148.374 34.2933C148.528 34.5198 148.616 34.783 148.63 35.0544L148.666 35.7943L149.406 35.8334C149.875 35.8583 150.296 36.0951 150.56 36.4828C150.783 36.8116 150.865 37.2078 150.79 37.5981Z" fill="white"/>
<path d="M152.117 55.0483C152.117 54.6076 152.014 54.1723 151.822 53.78C152.016 53.3876 152.117 52.9563 152.117 52.5075C152.117 51.1141 151.122 49.9492 149.806 49.6846C149.957 49.3319 150.039 48.9475 150.039 48.552C150.039 46.964 148.747 45.6722 147.159 45.6722C146.726 45.6722 146.304 45.7692 145.92 45.9524C145.226 45.2874 144.296 44.9066 143.312 44.9066C143.06 44.9066 142.81 44.9314 142.566 44.9807C142.343 44.7589 142.087 44.5758 141.806 44.438C142.377 43.8602 142.711 43.0725 142.711 42.2391C142.711 40.5137 141.307 39.1099 139.582 39.1099C138.825 39.1099 138.114 39.3756 137.554 39.8548C137.231 39.7445 136.889 39.6875 136.543 39.6875C135.928 39.6875 135.341 39.8647 134.841 40.1899C133.797 39.2044 132.17 39.0381 130.935 39.8775C129.878 40.5954 129.385 41.8859 129.63 43.0959C128.406 43.3231 127.451 44.3268 127.298 45.5746C126.946 45.4728 126.545 45.4186 126.1 45.4567C125.421 45.5145 124.82 45.7417 124.351 46.1102C124.065 46.0169 123.764 45.9689 123.459 45.9689C121.871 45.9689 120.579 47.2609 120.579 48.8488C120.579 48.9468 120.584 49.0443 120.594 49.1413C120.187 49.6487 119.961 50.2833 119.961 50.9422C119.961 51.4176 120.076 51.8705 120.283 52.2709C118.642 52.3654 117.336 53.7299 117.336 55.3937C117.336 56.1759 117.628 56.9164 118.135 57.4823C117.337 58.4647 116.941 59.7287 117.045 60.9969L121.507 88.0001H147.18L151.634 61.0642L151.642 60.997C151.721 60.032 151.51 59.0694 151.054 58.2315C151.12 57.971 151.155 57.7064 151.155 57.4502C151.155 57.3678 151.152 57.2858 151.145 57.2042C151.755 56.6633 152.117 55.8803 152.117 55.0483ZM122.899 86.3588L118.678 60.8311C118.612 59.9151 118.918 59.0399 119.541 58.3634C120.172 57.6791 121.032 57.3023 121.963 57.3023H121.997C123.774 57.3023 125.219 58.6933 125.288 60.4689L125.288 60.4854L125.296 60.5845C125.296 60.6513 125.297 60.7183 125.3 60.7854L127.331 86.3588H122.899ZM128.977 86.3588L126.937 60.5276C126.953 59.6969 127.276 58.9162 127.857 58.312C128.484 57.6609 129.326 57.3023 130.23 57.3023C132.046 57.3023 133.523 58.7797 133.523 60.5955V86.3588H128.977ZM135.164 86.3589V60.5956C135.164 58.7797 136.642 57.3024 138.457 57.3024C139.361 57.3024 140.204 57.661 140.831 58.3121C141.412 58.9163 141.735 59.6969 141.75 60.5277L139.711 86.3589H135.164ZM150.01 60.8311L145.788 86.3588H141.357L143.386 60.8188L143.388 60.7853C143.39 60.718 143.391 60.6509 143.391 60.5839L143.398 60.5018L143.4 60.4688C143.468 58.6932 144.914 57.3022 146.691 57.3022H146.725C147.656 57.3022 148.516 57.679 149.146 58.3633C149.77 59.0399 150.076 59.9151 150.01 60.8311ZM149.842 56.1287L149.338 56.4122C148.561 55.9273 147.655 55.6619 146.725 55.6619H146.69C144.968 55.6619 143.454 56.5339 142.572 57.8698C142.408 57.6247 142.222 57.3921 142.012 57.1748C141.074 56.1991 139.811 55.6619 138.457 55.6619C136.742 55.6619 135.228 56.5419 134.344 57.8743C133.459 56.542 131.945 55.6619 130.23 55.6619C128.876 55.6619 127.613 56.1991 126.675 57.1748C126.466 57.3921 126.279 57.6246 126.115 57.8698C125.233 56.5339 123.719 55.6619 121.997 55.6619H121.962C121.04 55.6619 120.142 55.9229 119.369 56.3997C119.12 56.1286 118.977 55.7712 118.977 55.3934C118.977 54.5732 119.644 53.9059 120.465 53.9059C120.739 53.9059 121.006 53.9806 121.238 54.1219L121.87 54.5067L122.318 53.918C122.416 53.7884 122.536 53.6754 122.674 53.5824L124.074 52.6344L122.463 52.1214C121.948 51.9574 121.602 51.4834 121.602 50.942C121.602 50.5879 121.754 50.2499 122.019 50.0146L122.403 49.6743L122.265 49.1802C122.235 49.0729 122.22 48.9613 122.22 48.8486C122.22 48.1654 122.776 47.6094 123.459 47.6094C123.687 47.6094 123.91 47.6715 124.102 47.789L124.735 48.1752L125.183 47.5849C125.454 47.2284 125.907 47.1198 126.24 47.0913C126.967 47.0301 127.499 47.4611 127.816 47.7194C127.914 47.7991 127.999 47.8681 128.092 47.9241L128.729 48.31L129.17 47.7175L129.572 47.189L129.181 46.6909C129.009 46.4709 128.918 46.2068 128.918 45.9273C128.918 45.2485 129.466 44.6954 130.143 44.6882L130.605 44.7145L130.869 44.3709C130.946 44.2714 131.031 44.1843 131.123 44.112L131.639 43.704L131.352 43.1115C131.034 42.453 131.251 41.6461 131.857 41.2345C132.536 40.773 133.463 40.9504 133.924 41.6285C133.951 41.6688 133.978 41.7149 134.005 41.7656L134.59 42.8872L135.375 41.8952C135.66 41.5349 136.086 41.3282 136.543 41.3282C136.817 41.3282 137.084 41.4029 137.316 41.5442L137.948 41.9289L138.395 41.3405C138.681 40.9657 139.113 40.7507 139.581 40.7507C140.402 40.7507 141.07 41.4184 141.07 42.2393C141.07 42.7761 140.779 43.2731 140.31 43.5363L139.734 43.8592L139.926 44.4904C139.969 44.6293 139.991 44.7721 139.993 44.9153C139.991 44.9372 139.99 44.9594 139.99 44.9823V45.7003L140.702 45.7952C141.063 45.8434 141.383 46.0484 141.581 46.358L141.939 46.9193L142.562 46.6836C142.801 46.5932 143.053 46.5474 143.312 46.5474C144.025 46.5474 144.687 46.9009 145.084 47.4931L145.616 48.2862L146.32 47.6409C146.55 47.4294 146.849 47.313 147.159 47.313C147.842 47.313 148.398 47.869 148.398 48.5522C148.398 48.9989 148.155 49.4131 147.764 49.6333L147.184 49.9596L147.384 50.5943C147.403 50.6551 147.417 50.7243 147.426 50.8003L147.567 52.0184L148.639 51.4229C148.82 51.3224 149.027 51.2692 149.237 51.2692C149.92 51.2692 150.476 51.8246 150.476 52.5073C150.476 52.7876 150.385 53.052 150.212 53.2721L149.815 53.7791L150.213 54.2851C150.385 54.5037 150.476 54.7673 150.476 55.0476C150.476 55.4943 150.233 55.9085 149.842 56.1287Z" fill="white"/>
<path d="M137.133 47.5862C136.89 47.5862 136.652 47.622 136.425 47.6919C135.854 47.0739 135.047 46.7112 134.18 46.7112C132.715 46.7112 131.487 47.7449 131.187 49.1209C129.567 49.1988 128.273 50.541 128.273 52.1799H129.914C129.914 51.3959 130.552 50.758 131.336 50.758C131.465 50.758 131.596 50.7769 131.727 50.8144L132.904 51.1509L132.768 49.9341C132.761 49.8745 132.758 49.8221 132.758 49.7737C132.758 48.9897 133.396 48.3518 134.18 48.3518C134.71 48.3518 135.193 48.645 135.44 49.1169L135.893 49.9832L136.667 49.3866C136.762 49.3136 136.919 49.2268 137.133 49.2268C137.555 49.2268 137.898 49.5703 137.898 49.9924H139.539C139.539 48.6656 138.46 47.5862 137.133 47.5862Z" fill="white"/>
<path d="M142.601 50.5939C141.799 50.5939 141.042 50.9389 140.511 51.5145C140.219 51.4121 139.91 51.3595 139.593 51.3595C138.056 51.3595 136.804 52.6106 136.804 54.1485H138.445C138.445 53.5153 138.96 53.0001 139.593 53.0001C139.842 53.0001 140.079 53.0798 140.28 53.2309L141.085 53.8348L141.515 52.9255C141.713 52.5057 142.14 52.2345 142.601 52.2345C143.265 52.2345 143.804 52.7742 143.804 53.4376H145.445C145.445 51.8695 144.169 50.5939 142.601 50.5939Z" fill="white"/>
<path d="M121.94 60.4431L120.322 60.7109L121.375 67.0796L122.994 66.8119L121.94 60.4431Z" fill="white"/>
<path d="M124.531 76.1098L122.913 76.3774L123.57 80.3517L125.188 80.0841L124.531 76.1098Z" fill="white"/>
<path d="M136.978 79.3445L136.809 81.4728L138.445 81.6028L138.614 79.4744L136.978 79.3445Z" fill="white"/>
<path d="M137.986 66.6576L137.49 72.8924L139.126 73.0223L139.621 66.7875L137.986 66.6576Z" fill="white"/>
<path d="M138.473 60.5166L138.185 64.1432L139.82 64.2732L140.108 60.6466L138.473 60.5166Z" fill="white"/>
</g>
<path d="M100.36 123.2C99.2933 123.2 98.3 123.027 97.38 122.68C96.4733 122.32 95.68 121.82 95 121.18C94.3333 120.527 93.8133 119.76 93.44 118.88C93.0667 118 92.88 117.04 92.88 116C92.88 114.96 93.0667 114 93.44 113.12C93.8133 112.24 94.34 111.48 95.02 110.84C95.7 110.187 96.4933 109.687 97.4 109.34C98.3067 108.98 99.3 108.8 100.38 108.8C101.527 108.8 102.573 109 103.52 109.4C104.467 109.787 105.267 110.367 105.92 111.14L104.24 112.72C103.733 112.173 103.167 111.767 102.54 111.5C101.913 111.22 101.233 111.08 100.5 111.08C99.7667 111.08 99.0933 111.2 98.48 111.44C97.88 111.68 97.3533 112.02 96.9 112.46C96.46 112.9 96.1133 113.42 95.86 114.02C95.62 114.62 95.5 115.28 95.5 116C95.5 116.72 95.62 117.38 95.86 117.98C96.1133 118.58 96.46 119.1 96.9 119.54C97.3533 119.98 97.88 120.32 98.48 120.56C99.0933 120.8 99.7667 120.92 100.5 120.92C101.233 120.92 101.913 120.787 102.54 120.52C103.167 120.24 103.733 119.82 104.24 119.26L105.92 120.86C105.267 121.62 104.467 122.2 103.52 122.6C102.573 123 101.52 123.2 100.36 123.2ZM108.611 123V109H111.211V123H108.611ZM115.198 123V109H117.338L126.118 119.78H125.058V109H127.638V123H125.498L116.718 112.22H117.778V123H115.198ZM133.989 114.82H140.949V116.96H133.989V114.82ZM134.189 120.82H142.089V123H131.589V109H141.809V111.18H134.189V120.82ZM145.188 123V109H147.328L153.448 119.22H152.328L158.348 109H160.488L160.508 123H158.048L158.028 112.86H158.548L153.428 121.4H152.268L147.068 112.86H147.668V123H145.188ZM162.509 123L168.809 109H171.369L177.689 123H174.969L169.549 110.38H170.589L165.189 123H162.509ZM165.409 119.76L166.109 117.72H173.669L174.369 119.76H165.409Z" fill="white"/>
<defs>
<clipPath id="clip0_529_53">
<rect width="56" height="56" fill="white" transform="translate(107 32)"/>
</clipPath>
</defs>
</svg>
