<svg width="152" height="97" viewBox="0 0 152 97" fill="none" xmlns="http://www.w3.org/2000/svg">
<path d="M12.16 0H0V72.5741H12.16V0Z" fill="#A2CF5F"/>
<path d="M30.4 0H18.24V72.5741H30.4V0Z" fill="#F36D21"/>
<path d="M48.64 0H36.48V72.5741H48.64V0Z" fill="#54C8E8"/>
<path d="M66.88 0H54.72V72.5741H66.88V0Z" fill="#F5E849"/>
<path d="M133.76 0H121.6V72.5741H133.76V0Z" fill="#F89C6E"/>
<path d="M152 0H139.84V72.5741H152V0Z" fill="#F0483E"/>
<path d="M85.1199 72.5741H72.96V0H91.1999L85.1199 72.5741Z" fill="#F78F20"/>
<path d="M103.36 72.5741H115.52V0H97.28L103.36 72.5741Z" fill="#E72076"/>
<path d="M2.16244 96.5859C1.38553 96.3834 0.652564 96.0408 0 95.5752L0.95736 93.4659C1.52234 93.8684 2.14907 94.1773 2.81326 94.3806C3.50882 94.6067 4.23555 94.7237 4.9673 94.7273C5.57931 94.7699 6.19151 94.6472 6.73922 94.3723C6.91232 94.2829 7.05748 94.148 7.15891 93.9824C7.26033 93.8167 7.31412 93.6265 7.31447 93.4325C7.31694 93.2948 7.28756 93.1584 7.22859 93.0339C7.16961 92.9093 7.08262 92.7999 6.97436 92.7141C6.71853 92.5069 6.42481 92.3509 6.10939 92.2547C5.75248 92.1419 5.26962 92.0124 4.67337 91.8746C3.9018 91.7033 3.14174 91.4843 2.39758 91.2189C1.80939 91.0019 1.28633 90.6397 0.87758 90.1663C0.433194 89.6202 0.207381 88.93 0.243543 88.2283C0.237778 87.549 0.438267 86.8837 0.81879 86.3196C1.25038 85.712 1.84983 85.242 2.54453 84.9664C3.44213 84.6089 4.40388 84.4383 5.37038 84.4651C6.13746 84.4641 6.90178 84.5567 7.6462 84.7408C8.3323 84.9015 8.98847 85.1694 9.59029 85.5344L8.72111 87.6603C7.7046 87.0557 6.54623 86.7273 5.362 86.708C4.75518 86.6659 4.14893 86.7978 3.61524 87.0881C3.44138 87.1919 3.2977 87.3388 3.1983 87.5146C3.09891 87.6904 3.04724 87.8888 3.0484 88.0905C3.04806 88.2917 3.10991 88.4882 3.22557 88.6533C3.34123 88.8184 3.50511 88.9442 3.69502 89.0136C4.33537 89.277 5.00077 89.4757 5.68112 89.6066C6.45942 89.7802 7.22641 90.0006 7.9779 90.2666C8.56378 90.4798 9.08644 90.8359 9.4979 91.3024C9.94416 91.8393 10.1706 92.5239 10.1319 93.2195C10.1376 93.8942 9.93535 94.5545 9.55249 95.1115C9.1141 95.7222 8.50747 96.1936 7.80576 96.4689C6.90503 96.8257 5.94067 96.9963 4.9715 96.9701C4.02835 96.9726 3.08961 96.8419 2.18343 96.5817" fill="black"/>
<path d="M24.4334 94.5186V96.7656H15.0153V84.6699H24.2066V86.917H17.8117V89.5441H23.4592V91.7202H17.8117V94.5186H24.4334Z" fill="black"/>
<path d="M41.4851 84.6699L36.2197 96.7656H33.44L28.1914 84.6699H31.2356L34.9348 93.3115L38.6886 84.6699H41.4851Z" fill="black"/>
<path d="M45.6839 84.6695H48.5014V96.7819H45.6839V84.6695ZM46.0408 83.1826C45.9028 83.0446 45.7944 82.8802 45.7222 82.6992C45.6501 82.5183 45.6156 82.3247 45.6209 82.1301C45.6138 81.9375 45.6468 81.7456 45.7178 81.5663C45.7888 81.387 45.8962 81.2241 46.0334 81.0881C46.1706 80.952 46.3346 80.8456 46.515 80.7755C46.6955 80.7054 46.8886 80.6732 47.0821 80.6808C47.2766 80.6744 47.4703 80.7082 47.651 80.7801C47.8317 80.852 47.9955 80.9604 48.1319 81.0984C48.2688 81.2338 48.3766 81.3954 48.4488 81.5734C48.521 81.7515 48.556 81.9423 48.5518 82.1343C48.5571 82.3289 48.5226 82.5225 48.4505 82.7034C48.3783 82.8844 48.2699 83.0488 48.1319 83.1868C47.8481 83.4535 47.4725 83.6021 47.0821 83.6021C46.6918 83.6021 46.3162 83.4535 46.0324 83.1868" fill="black"/>
<path d="M65.3936 84.6699V96.7656H63.0842L57.021 89.423V96.7656H54.2413V84.6699H56.5675L62.6139 92.0125V84.6699H65.3936Z" fill="black"/>
<path d="M73.6234 96.1725C72.646 95.657 71.8286 94.8858 71.2595 93.9421C70.6953 92.9609 70.3986 91.8502 70.3986 90.7198C70.3986 89.5895 70.6953 88.4787 71.2595 87.4975C71.8262 86.5519 72.6442 85.7802 73.6234 85.2672C74.6649 84.7227 75.8271 84.4469 77.0036 84.4652C77.9847 84.4515 78.9581 84.6392 79.863 85.0165C80.694 85.3697 81.4283 85.9153 82.0045 86.6079L80.1989 88.2785C79.8291 87.8289 79.3624 87.4678 78.8333 87.2219C78.3041 86.9761 77.7261 86.8519 77.1421 86.8585C76.4388 86.8474 75.7446 87.0172 75.1267 87.3513C74.5461 87.6719 74.0675 88.148 73.7452 88.7254C73.4197 89.3441 73.2496 90.032 73.2496 90.7302C73.2496 91.4285 73.4197 92.1164 73.7452 92.735C74.0663 93.3135 74.5452 93.7898 75.1267 94.1092C75.7439 94.4453 76.4386 94.6152 77.1421 94.602C77.7273 94.608 78.3062 94.4822 78.8356 94.2341C79.3649 93.9861 79.831 93.6221 80.1989 93.1694L82.0045 94.8401C81.4298 95.5408 80.6918 96.0913 79.8546 96.4439C78.9474 96.8238 77.971 97.0129 76.9868 96.9994C75.8172 97.016 74.6622 96.7403 73.6276 96.1975" fill="black"/>
<path d="M105.132 96.7656L105.115 89.5107L101.534 95.4875H100.27L96.7048 89.6652V96.7656H94.0637V84.6699H96.3941L100.946 92.188L105.426 84.6699H107.735L107.773 96.7656H105.132Z" fill="black"/>
<path d="M120.706 92.0498L118.774 87.4178L116.847 92.0498H120.706ZM121.592 94.1757H115.944L114.865 96.7652H111.984L117.405 84.6528H120.185L125.644 96.7652H122.704L121.592 94.1757Z" fill="black"/>
<path d="M129.813 84.6699H132.626V94.4851H138.723V96.7656H129.813V84.6699Z" fill="black"/>
<path d="M143.086 84.6699H145.903V94.4851H152V96.7656H143.086V84.6699Z" fill="black"/>
</svg>
