<svg width="270" height="160" viewBox="0 0 270 160" fill="none" xmlns="http://www.w3.org/2000/svg">
<rect width="270" height="160" rx="10" fill="#FF9D6C"/>
<path d="M70.88 123V109H73.48V123H70.88ZM83.9467 123.2C82.8801 123.2 81.8867 123.027 80.9667 122.68C80.0601 122.32 79.2667 121.82 78.5867 121.18C77.9201 120.527 77.4001 119.76 77.0267 118.88C76.6534 118 76.4667 117.04 76.4667 116C76.4667 114.96 76.6534 114 77.0267 113.12C77.4001 112.24 77.9267 111.48 78.6067 110.84C79.2867 110.187 80.0801 109.687 80.9867 109.34C81.8934 108.98 82.8867 108.8 83.9667 108.8C85.1134 108.8 86.1601 109 87.1067 109.4C88.0534 109.787 88.8534 110.367 89.5067 111.14L87.8267 112.72C87.3201 112.173 86.7534 111.767 86.1267 111.5C85.5001 111.22 84.8201 111.08 84.0867 111.08C83.3534 111.08 82.6801 111.2 82.0667 111.44C81.4667 111.68 80.9401 112.02 80.4867 112.46C80.0467 112.9 79.7001 113.42 79.4467 114.02C79.2067 114.62 79.0867 115.28 79.0867 116C79.0867 116.72 79.2067 117.38 79.4467 117.98C79.7001 118.58 80.0467 119.1 80.4867 119.54C80.9401 119.98 81.4667 120.32 82.0667 120.56C82.6801 120.8 83.3534 120.92 84.0867 120.92C84.8201 120.92 85.5001 120.787 86.1267 120.52C86.7534 120.24 87.3201 119.82 87.8267 119.26L89.5067 120.86C88.8534 121.62 88.0534 122.2 87.1067 122.6C86.1601 123 85.1067 123.2 83.9467 123.2ZM94.598 114.82H101.558V116.96H94.598V114.82ZM94.798 120.82H102.698V123H92.198V109H102.418V111.18H94.798V120.82ZM115.864 123.2C114.77 123.2 113.724 123.047 112.724 122.74C111.724 122.42 110.93 122.013 110.344 121.52L111.244 119.5C111.804 119.94 112.497 120.307 113.324 120.6C114.15 120.893 114.997 121.04 115.864 121.04C116.597 121.04 117.19 120.96 117.644 120.8C118.097 120.64 118.43 120.427 118.644 120.16C118.857 119.88 118.964 119.567 118.964 119.22C118.964 118.793 118.81 118.453 118.504 118.2C118.197 117.933 117.797 117.727 117.304 117.58C116.824 117.42 116.284 117.273 115.684 117.14C115.097 117.007 114.504 116.853 113.904 116.68C113.317 116.493 112.777 116.26 112.284 115.98C111.804 115.687 111.41 115.3 111.104 114.82C110.797 114.34 110.644 113.727 110.644 112.98C110.644 112.22 110.844 111.527 111.244 110.9C111.657 110.26 112.277 109.753 113.104 109.38C113.944 108.993 115.004 108.8 116.284 108.8C117.124 108.8 117.957 108.907 118.784 109.12C119.61 109.333 120.33 109.64 120.944 110.04L120.124 112.06C119.497 111.687 118.85 111.413 118.184 111.24C117.517 111.053 116.877 110.96 116.264 110.96C115.544 110.96 114.957 111.047 114.504 111.22C114.064 111.393 113.737 111.62 113.524 111.9C113.324 112.18 113.224 112.5 113.224 112.86C113.224 113.287 113.37 113.633 113.664 113.9C113.97 114.153 114.364 114.353 114.844 114.5C115.337 114.647 115.884 114.793 116.484 114.94C117.084 115.073 117.677 115.227 118.264 115.4C118.864 115.573 119.404 115.8 119.884 116.08C120.377 116.36 120.77 116.74 121.064 117.22C121.37 117.7 121.524 118.307 121.524 119.04C121.524 119.787 121.317 120.48 120.904 121.12C120.504 121.747 119.884 122.253 119.044 122.64C118.204 123.013 117.144 123.2 115.864 123.2ZM126.622 119.7L126.482 116.62L133.822 109H136.742L130.642 115.48L129.202 117.06L126.622 119.7ZM124.302 123V109H126.902V123H124.302ZM134.062 123L128.702 116.62L130.422 114.72L137.102 123H134.062ZM136.487 123L142.787 109H145.347L151.667 123H148.947L143.527 110.38H144.567L139.167 123H136.487ZM139.387 119.76L140.087 117.72H147.647L148.347 119.76H139.387ZM155.784 123V111.2H151.144V109H163.024V111.2H158.384V123H155.784ZM165.175 123V109H167.775V123H165.175ZM171.762 123V109H173.902L182.682 119.78H181.622V109H184.202V123H182.062L173.282 112.22H174.342V123H171.762ZM194.693 123.2C193.6 123.2 192.593 123.027 191.673 122.68C190.767 122.32 189.973 121.82 189.293 121.18C188.613 120.527 188.087 119.76 187.713 118.88C187.34 118 187.153 117.04 187.153 116C187.153 114.96 187.34 114 187.713 113.12C188.087 112.24 188.613 111.48 189.293 110.84C189.987 110.187 190.793 109.687 191.713 109.34C192.633 108.98 193.64 108.8 194.733 108.8C195.92 108.8 196.987 108.993 197.933 109.38C198.893 109.767 199.7 110.333 200.353 111.08L198.713 112.68C198.167 112.133 197.573 111.733 196.933 111.48C196.307 111.213 195.613 111.08 194.853 111.08C194.12 111.08 193.44 111.2 192.813 111.44C192.187 111.68 191.647 112.02 191.193 112.46C190.74 112.9 190.387 113.42 190.133 114.02C189.893 114.62 189.773 115.28 189.773 116C189.773 116.707 189.893 117.36 190.133 117.96C190.387 118.56 190.74 119.087 191.193 119.54C191.647 119.98 192.18 120.32 192.793 120.56C193.407 120.8 194.087 120.92 194.833 120.92C195.527 120.92 196.193 120.813 196.833 120.6C197.487 120.373 198.107 120 198.693 119.48L200.173 121.42C199.44 122.007 198.587 122.453 197.613 122.76C196.653 123.053 195.68 123.2 194.693 123.2ZM197.713 121.08V115.84H200.173V121.42L197.713 121.08Z" fill="white"/>
<g clip-path="url(#clip0_529_56)">
<path d="M151.194 38.0666C150.752 38.3834 150.473 38.8789 150.43 39.4209C150.417 39.6157 150.435 39.8112 150.483 40.0005C150.057 40.5164 149.714 41.0959 149.467 41.7178C148.879 41.4811 148.252 41.3546 147.619 41.3445C147.434 41.3539 147.25 41.3187 147.082 41.2418L130.756 32.4134C129.933 31.9688 128.965 31.8772 128.073 32.1596C126.379 32.6681 125.364 34.3968 125.746 36.1234C124.574 36.6847 123.831 37.8714 123.837 39.1708C123.837 40.4379 124.536 41.6017 125.655 42.1957L134.538 46.9426L128.038 49.92C126.611 50.5719 125.608 51.9 125.373 53.4517L124.054 62.0122C123.984 62.4674 123.592 62.8035 123.132 62.8037H112.6C111.964 62.8054 111.373 63.1308 111.031 63.667L109.701 63.0025C109.122 62.7132 108.435 62.7444 107.884 63.085C107.334 63.4256 106.999 64.0269 107 64.6741V73.9999C106.997 74.6573 107.342 75.2671 107.908 75.6015C108.47 75.9421 109.17 75.9591 109.747 75.6463L110.96 74.993C111.468 76.2109 112.727 76.9395 114.036 76.7731C115.346 76.6066 116.382 75.5863 116.569 74.2799L117.143 70.2666H119.133C119.797 70.2646 120.41 69.9089 120.741 69.3333H126.621C128.114 69.3345 129.464 68.4462 130.053 67.0746L131.483 63.7389H132.2V82.3999C132.202 83.0357 132.527 83.6269 133.062 83.9689L132.398 85.2979C132.108 85.8765 132.139 86.5637 132.479 87.1142C132.819 87.6646 133.42 87.9998 134.067 87.9999H143.4C144.056 87.9997 144.664 87.6552 145.001 87.0925C145.338 86.5299 145.355 85.8316 145.045 85.2531L144.392 84.0398C145.611 83.5324 146.34 82.2735 146.173 80.9642C146.007 79.655 144.987 78.6182 143.68 78.4314L139.667 77.8593V75.8666C139.665 75.2027 139.309 74.5902 138.733 74.2594V61.8731C138.73 60.2672 137.899 58.7765 136.534 57.9289L149.881 51.1156C150.636 50.7304 151.285 50.1661 151.772 49.472C154.168 51.1716 157.406 51.0569 159.675 49.192C159.816 49.2272 159.961 49.2457 160.106 49.247C160.157 49.247 160.209 49.247 160.262 49.2414C160.803 49.1982 161.298 48.9186 161.615 48.477C163.734 45.5059 163.395 41.438 160.813 38.8587C158.232 36.2793 154.163 35.9443 151.194 38.0666V38.0666ZM126.535 40.5484C126.024 40.2784 125.704 39.7483 125.704 39.1708C125.703 38.5683 126.053 38.0203 126.6 37.768C126.856 38.0443 127.156 38.2766 127.488 38.4558L139.348 44.7372L136.669 45.9654L126.535 40.5484ZM108.867 73.9999V64.6741L110.733 65.6074V73.0022L108.867 73.9999ZM117.143 68.3999C116.215 68.4035 115.429 69.0847 115.295 70.0025L114.721 74.0158C114.64 74.5671 114.149 74.9635 113.593 74.9253C113.037 74.8871 112.604 74.4273 112.6 73.8702V64.6722H119.133V68.4055L117.143 68.3999ZM134.067 86.1333L135 84.2666H142.399L143.4 86.1333H134.067ZM139.402 79.7073L143.415 80.2803C143.964 80.3637 144.357 80.8546 144.318 81.4086C144.279 81.9626 143.822 82.3939 143.267 82.3999H134.067V75.8666H137.8V77.8565C137.802 78.7851 138.484 79.5723 139.403 79.7073H139.402ZM136.867 73.9999H134.067V63.7333C134.067 62.7024 133.231 61.8666 132.2 61.8666H129.4C128.885 61.8666 128.467 62.2845 128.467 62.7999C128.467 63.3154 128.885 63.7333 129.4 63.7333H129.45L128.336 66.3401C128.042 67.0266 127.367 67.4716 126.62 67.4713H121V64.6713H123.132C124.516 64.6777 125.695 63.6667 125.899 62.2978L127.217 53.7364C127.358 52.8056 127.96 52.0091 128.817 51.6186L129.013 51.5253L132.418 57.2037H131.267C130.751 57.2037 130.333 57.6216 130.333 58.137C130.333 58.6525 130.751 59.0703 131.267 59.0703H134.067C134.809 59.0703 135.521 59.3653 136.047 59.8904C136.572 60.4156 136.867 61.1277 136.867 61.8704V73.9999ZM149.033 49.4533L134.419 56.9125L130.72 50.7469L143.051 45.0937C143.52 44.8787 143.725 44.3246 143.51 43.8561C143.295 43.3875 142.741 43.1819 142.273 43.3969L141.488 43.7572L128.364 36.8066C127.853 36.5367 127.534 36.0066 127.533 35.429C127.532 35.1833 127.591 34.9409 127.703 34.7225C127.895 34.3455 128.232 34.063 128.637 33.9404C129.048 33.8088 129.496 33.8509 129.876 34.057L146.2 42.8882C146.635 43.1106 147.118 43.2216 147.607 43.2112C148.1 43.2162 148.586 43.333 149.028 43.5528C149.01 43.7488 148.999 43.9457 148.999 44.1445C148.998 45.6072 149.492 47.0273 150.399 48.1746C150.075 48.7229 149.601 49.1666 149.033 49.4533V49.4533ZM150.867 44.1445C150.863 43.229 151.133 42.3332 151.64 41.5713L158.107 48.0365C157.344 48.5431 156.449 48.8121 155.533 48.8093C152.957 48.8093 150.868 46.7211 150.867 44.1445ZM160.093 47.3822L152.294 39.5852H152.281C154.505 37.9964 157.551 38.2469 159.486 40.1776C161.42 42.1083 161.677 45.1541 160.093 47.3813V47.3822Z" fill="white"/>
</g>
<defs>
<clipPath id="clip0_529_56">
<rect width="56" height="56" fill="white" transform="translate(107 32)"/>
</clipPath>
</defs>
</svg>
