<svg width="32" height="32" viewBox="0 0 32 32" fill="none" xmlns="http://www.w3.org/2000/svg">
<circle cx="16" cy="16" r="15.75" stroke="#D53876" stroke-width="0.5"/>
<path d="M16 8.34818C18.4921 8.34818 18.7873 8.3577 19.7714 8.4026C20.6814 8.4441 21.1756 8.59614 21.5045 8.72396C21.9401 8.89327 22.2511 9.09552 22.5776 9.4221C22.9043 9.74872 23.1065 10.0596 23.2758 10.4953C23.4036 10.8242 23.5557 11.3184 23.5972 12.2283C23.6421 13.2125 23.6516 13.5077 23.6516 15.9998C23.6516 18.4919 23.6421 18.7871 23.5972 19.7713C23.5557 20.6812 23.4036 21.1754 23.2758 21.5043C23.1065 21.94 22.9043 22.2509 22.5777 22.5775C22.2511 22.9041 21.9401 23.1063 21.5045 23.2756C21.1756 23.4035 20.6814 23.5555 19.7714 23.597C18.7874 23.6419 18.4922 23.6514 16 23.6514C13.5077 23.6514 13.2125 23.6419 12.2285 23.597C11.3185 23.5555 10.8243 23.4035 10.4954 23.2756C10.0598 23.1063 9.74886 22.9041 9.42227 22.5775C9.09569 22.2509 8.8934 21.94 8.72409 21.5043C8.59627 21.1754 8.44422 20.6812 8.40273 19.7713C8.35783 18.7871 8.3483 18.4919 8.3483 15.9998C8.3483 13.5077 8.35783 13.2125 8.40273 12.2283C8.44422 11.3184 8.59627 10.8242 8.72409 10.4953C8.8934 10.0596 9.09565 9.74872 9.42227 9.42214C9.74886 9.09552 10.0598 8.89327 10.4954 8.72396C10.8243 8.59614 11.3185 8.4441 12.2285 8.4026C13.2127 8.3577 13.5079 8.34818 16 8.34818ZM16 6.6665C13.4652 6.6665 13.1473 6.67725 12.1518 6.72267C11.1584 6.76798 10.4799 6.92577 9.88627 7.15647C9.27252 7.39499 8.75202 7.71413 8.23312 8.23299C7.71425 8.75189 7.39512 9.27239 7.15663 9.88614C6.92589 10.4798 6.7681 11.1583 6.72279 12.1517C6.67737 13.1472 6.66663 13.465 6.66663 15.9998C6.66663 18.5346 6.67737 18.8524 6.72279 19.8479C6.7681 20.8413 6.92589 21.5198 7.15663 22.1135C7.39512 22.7272 7.71425 23.2477 8.23312 23.7666C8.75202 24.2855 9.27252 24.6046 9.88627 24.8431C10.4799 25.0738 11.1584 25.2316 12.1518 25.2769C13.1473 25.3224 13.4652 25.3331 16 25.3331C18.5347 25.3331 18.8526 25.3224 19.8481 25.2769C20.8415 25.2316 21.52 25.0738 22.1136 24.8431C22.7274 24.6046 23.2479 24.2855 23.7668 23.7666C24.2857 23.2477 24.6048 22.7272 24.8433 22.1135C25.074 21.5198 25.2318 20.8413 25.2771 19.8479C25.3225 18.8524 25.3333 18.5346 25.3333 15.9998C25.3333 13.465 25.3225 13.1472 25.2771 12.1517C25.2318 11.1583 25.074 10.4798 24.8433 9.88614C24.6048 9.27239 24.2857 8.75189 23.7668 8.23299C23.2479 7.71413 22.7274 7.39499 22.1136 7.15647C21.52 6.92577 20.8415 6.76798 19.8481 6.72267C18.8526 6.67725 18.5347 6.6665 16 6.6665Z" fill="#D53876"/>
<path d="M16.0046 11.2114C13.3576 11.2114 11.2118 13.3572 11.2118 16.0042C11.2118 18.6512 13.3576 20.797 16.0046 20.797C18.6515 20.797 20.7973 18.6512 20.7973 16.0042C20.7973 13.3572 18.6515 11.2114 16.0046 11.2114ZM16.0046 19.1153C14.2863 19.1153 12.8935 17.7224 12.8935 16.0042C12.8935 14.286 14.2863 12.8931 16.0046 12.8931C17.7228 12.8931 19.1156 14.286 19.1156 16.0042C19.1156 17.7224 17.7228 19.1153 16.0046 19.1153Z" fill="#D53876"/>
<path d="M22.1061 11.0189C22.1061 11.6375 21.6046 12.1389 20.986 12.1389C20.3674 12.1389 19.866 11.6375 19.866 11.0189C19.866 10.4004 20.3674 9.89893 20.986 9.89893C21.6046 9.89893 22.1061 10.4004 22.1061 11.0189Z" fill="#D53876"/>
</svg>
