<svg width="270" height="160" viewBox="0 0 270 160" fill="none" xmlns="http://www.w3.org/2000/svg">
<rect width="270" height="160" rx="10" fill="#EADD44"/>
<g clip-path="url(#clip0_529_55)">
<path d="M135 73.2343C131.834 73.2343 129.258 75.8101 129.258 78.9764C129.258 82.1427 131.834 84.7186 135 84.7186C138.166 84.7186 140.742 82.1427 140.742 78.9764C140.742 75.8101 138.166 73.2343 135 73.2343ZM135 83.078C132.738 83.078 130.898 81.2381 130.898 78.9764C130.898 76.7148 132.738 74.8749 135 74.8749C137.262 74.8749 139.102 76.7148 139.102 78.9764C139.102 81.2381 137.262 83.078 135 83.078Z" fill="white"/>
<path d="M143.358 45.9452C143.358 49.1115 145.934 51.6874 149.1 51.6874C152.266 51.6874 154.842 49.1115 154.842 45.9452C154.842 43.9922 153.862 42.2649 152.367 41.2271C152.878 40.7758 153.202 40.1165 153.202 39.3827C153.202 38.8369 153.025 38.3183 152.699 37.8919C152.628 37.3599 152.386 36.8684 152 36.4824C151.614 36.0965 151.123 35.8547 150.591 35.7836C150.165 35.4577 149.646 35.2811 149.1 35.2811C148.554 35.2811 148.036 35.4575 147.609 35.7836C147.077 35.8546 146.586 36.0965 146.2 36.4825C145.814 36.8685 145.572 37.3599 145.501 37.8919C145.175 38.3183 144.998 38.8369 144.998 39.3827C144.998 40.1165 145.322 40.7758 145.833 41.2271C144.339 42.2649 143.358 43.9922 143.358 45.9452V45.9452ZM153.202 45.9452C153.202 48.2069 151.362 50.0468 149.1 50.0468C146.838 50.0468 144.999 48.2069 144.999 45.9452C144.999 43.6835 146.838 41.8436 149.1 41.8436C151.362 41.8436 153.202 43.6835 153.202 45.9452ZM147.459 40.203C147.007 40.203 146.639 39.8351 146.639 39.3827C146.639 39.1636 146.724 38.9576 146.879 38.8027C147.033 38.6488 147.12 38.4402 147.12 38.2226C147.12 38.0035 147.205 37.7974 147.36 37.6424C147.515 37.4874 147.721 37.4022 147.94 37.4022C148.158 37.4022 148.366 37.3158 148.52 37.1621C148.675 37.0071 148.881 36.9218 149.1 36.9218C149.319 36.9218 149.525 37.0071 149.68 37.1619C149.834 37.3158 150.043 37.4022 150.26 37.4022C150.479 37.4022 150.685 37.4876 150.84 37.6424C150.995 37.7974 151.081 38.0034 151.081 38.2226C151.081 38.4401 151.167 38.6488 151.321 38.8027C151.476 38.9576 151.561 39.1635 151.561 39.3827C151.561 39.8351 151.193 40.203 150.741 40.203H147.459Z" fill="white"/>
<path d="M163 48.1327C163 47.6797 162.633 47.3124 162.18 47.3124C161.727 47.3124 161.359 47.6797 161.359 48.1327C161.359 51.9688 158.418 55.1297 154.673 55.4817C154.304 54.238 153.151 53.328 151.789 53.328H146.32C144.935 53.328 143.766 54.2697 143.418 55.5463C138.776 55.9121 135.109 59.8041 135.109 64.5389C135.109 64.992 135.477 65.3593 135.93 65.3593C136.383 65.3593 136.75 64.992 136.75 64.5389C136.75 60.7454 139.626 57.6123 143.312 57.2028V62.0516C142.252 63.3629 141.672 64.9977 141.672 66.6898V68.9139C141.672 69.367 142.039 69.7343 142.492 69.7343H144.953V82.2133L142.233 83.1201C141.803 83.2634 141.571 83.728 141.714 84.1578C141.829 84.5015 142.149 84.7188 142.492 84.7188C142.578 84.7188 142.665 84.7052 142.752 84.6765L146.033 83.5828C146.368 83.4711 146.594 83.1576 146.594 82.8046V69.7343H151.516V73.8358C151.516 74.4008 151.712 74.953 152.069 75.3906L156.437 80.7451V83.8983C156.437 84.3513 156.805 84.7186 157.258 84.7186C157.711 84.7186 158.078 84.3513 158.078 83.8983V80.453C158.078 80.264 158.013 80.0809 157.893 79.9345L153.341 74.3534C153.256 74.2503 153.156 74.0769 153.156 73.8358V69.7343H155.617C156.07 69.7343 156.438 69.367 156.438 68.9139V66.6898C156.438 64.9976 155.857 63.3629 154.797 62.0516V57.1172C159.389 56.7011 163 52.8315 163 48.1327V48.1327ZM146.32 54.9686H151.789C152.543 54.9686 153.156 55.5819 153.156 56.3358V61.5311H144.953V56.3358C144.953 55.5819 145.566 54.9686 146.32 54.9686V54.9686ZM154.797 68.0936H143.312V66.6898C143.312 65.4115 143.74 64.1761 144.52 63.1718H153.59C154.37 64.1761 154.797 65.4115 154.797 66.6898V68.0936Z" fill="white"/>
<path d="M120.945 51.6874C124.112 51.6874 126.688 49.1115 126.688 45.9452V40.203C126.688 37.4891 124.48 35.2811 121.766 35.2811C120.334 35.2811 119.009 35.8837 118.074 36.9472C116.458 37.1498 115.203 38.5326 115.203 40.203V45.9452C115.203 49.1115 117.779 51.6874 120.945 51.6874V51.6874ZM116.844 40.203C116.844 39.2984 117.58 38.5624 118.484 38.5624C118.742 38.5624 118.985 38.4411 119.14 38.2347C119.767 37.4003 120.724 36.9218 121.766 36.9218C123.575 36.9218 125.047 38.3937 125.047 40.203V41.932C124.004 40.8661 122.551 40.203 120.945 40.203C119.34 40.203 117.887 40.8661 116.844 41.932V40.203ZM120.945 41.8436C123.207 41.8436 125.047 43.6835 125.047 45.9452C125.047 48.2069 123.207 50.0468 120.945 50.0468C118.684 50.0468 116.844 48.2069 116.844 45.9452C116.844 43.6835 118.684 41.8436 120.945 41.8436Z" fill="white"/>
<path d="M127.767 83.1201L125.047 82.2133V68.0053C126.061 66.9693 126.688 65.5527 126.688 63.9921V57.1172C131.28 56.7012 134.891 52.8317 134.891 48.1327C134.891 47.6797 134.523 47.3124 134.07 47.3124C133.617 47.3124 133.25 47.6797 133.25 48.1327C133.25 51.9688 130.309 55.1296 126.563 55.4817C126.194 54.238 125.042 53.328 123.68 53.328H118.211C116.849 53.328 115.696 54.238 115.327 55.4817C111.582 55.1296 108.641 51.9688 108.641 48.1327C108.641 47.6797 108.273 47.3124 107.82 47.3124C107.367 47.3124 107 47.6797 107 48.1327C107 52.8315 110.611 56.7011 115.203 57.1172V63.9921C115.203 65.5527 115.83 66.9693 116.844 68.0053V73.8358C116.844 74.0769 116.743 74.2503 116.659 74.3535L112.106 79.9345C111.987 80.0808 111.922 80.264 111.922 80.453V83.8983C111.922 84.3513 112.289 84.7186 112.742 84.7186C113.195 84.7186 113.562 84.3513 113.562 83.8983V80.7451L117.93 75.3906C118.288 74.9529 118.484 74.4006 118.484 73.8358V69.1791C119.231 69.5345 120.065 69.7343 120.945 69.7343C121.826 69.7343 122.66 69.5346 123.406 69.1791V82.8046C123.406 83.1576 123.632 83.4711 123.967 83.5828L127.248 84.6765C127.334 84.7052 127.422 84.7188 127.508 84.7188C127.851 84.7188 128.171 84.5014 128.286 84.1578C128.429 83.7279 128.197 83.2634 127.767 83.1201V83.1201ZM125.047 56.3358V63.1718H123.406V54.9686H123.68C124.434 54.9686 125.047 55.5819 125.047 56.3358ZM121.766 63.1718H120.125V54.9686H121.766V63.1718ZM118.211 54.9686H118.484V63.1718H116.844V56.3358C116.844 55.5819 117.457 54.9686 118.211 54.9686ZM116.926 64.8124H118.484V65.0858C118.484 65.5388 118.852 65.9061 119.305 65.9061C119.758 65.9061 120.125 65.5388 120.125 65.0858V64.8124H121.766V65.0858C121.766 65.5388 122.133 65.9061 122.586 65.9061C123.039 65.9061 123.406 65.5388 123.406 65.0858V64.8124H124.964C124.583 66.6823 122.926 68.0936 120.945 68.0936C118.965 68.0936 117.307 66.6823 116.926 64.8124Z" fill="white"/>
</g>
<path d="M81.2 119.7L81.06 116.62L88.4 109H91.32L85.22 115.48L83.78 117.06L81.2 119.7ZM78.88 123V109H81.48V123H78.88ZM88.64 123L83.28 116.62L85 114.72L91.68 123H88.64ZM93.6503 123V109H96.2503V123H93.6503ZM100.237 123V109H106.357C107.877 109 109.21 109.293 110.357 109.88C111.504 110.467 112.397 111.28 113.037 112.32C113.677 113.36 113.997 114.587 113.997 116C113.997 117.4 113.677 118.627 113.037 119.68C112.397 120.72 111.504 121.533 110.357 122.12C109.21 122.707 107.877 123 106.357 123H100.237ZM102.837 120.8H106.237C107.29 120.8 108.197 120.6 108.957 120.2C109.73 119.8 110.324 119.24 110.737 118.52C111.164 117.8 111.377 116.96 111.377 116C111.377 115.027 111.164 114.187 110.737 113.48C110.324 112.76 109.73 112.2 108.957 111.8C108.197 111.4 107.29 111.2 106.237 111.2H102.837V120.8ZM121.3 123.2C120.207 123.2 119.16 123.047 118.16 122.74C117.16 122.42 116.367 122.013 115.78 121.52L116.68 119.5C117.24 119.94 117.934 120.307 118.76 120.6C119.587 120.893 120.434 121.04 121.3 121.04C122.034 121.04 122.627 120.96 123.08 120.8C123.534 120.64 123.867 120.427 124.08 120.16C124.294 119.88 124.4 119.567 124.4 119.22C124.4 118.793 124.247 118.453 123.94 118.2C123.634 117.933 123.234 117.727 122.74 117.58C122.26 117.42 121.72 117.273 121.12 117.14C120.534 117.007 119.94 116.853 119.34 116.68C118.754 116.493 118.214 116.26 117.72 115.98C117.24 115.687 116.847 115.3 116.54 114.82C116.234 114.34 116.08 113.727 116.08 112.98C116.08 112.22 116.28 111.527 116.68 110.9C117.094 110.26 117.714 109.753 118.54 109.38C119.38 108.993 120.44 108.8 121.72 108.8C122.56 108.8 123.394 108.907 124.22 109.12C125.047 109.333 125.767 109.64 126.38 110.04L125.56 112.06C124.934 111.687 124.287 111.413 123.62 111.24C122.954 111.053 122.314 110.96 121.7 110.96C120.98 110.96 120.394 111.047 119.94 111.22C119.5 111.393 119.174 111.62 118.96 111.9C118.76 112.18 118.66 112.5 118.66 112.86C118.66 113.287 118.807 113.633 119.1 113.9C119.407 114.153 119.8 114.353 120.28 114.5C120.774 114.647 121.32 114.793 121.92 114.94C122.52 115.073 123.114 115.227 123.7 115.4C124.3 115.573 124.84 115.8 125.32 116.08C125.814 116.36 126.207 116.74 126.5 117.22C126.807 117.7 126.96 118.307 126.96 119.04C126.96 119.787 126.754 120.48 126.34 121.12C125.94 121.747 125.32 122.253 124.48 122.64C123.64 123.013 122.58 123.2 121.3 123.2ZM133.486 123L139.786 109H142.346L148.666 123H145.946L140.526 110.38H141.566L136.166 123H133.486ZM136.386 119.76L137.086 117.72H144.646L145.346 119.76H136.386ZM150.646 123V109H156.406C157.646 109 158.706 109.2 159.586 109.6C160.48 110 161.166 110.573 161.646 111.32C162.126 112.067 162.366 112.953 162.366 113.98C162.366 115.007 162.126 115.893 161.646 116.64C161.166 117.373 160.48 117.94 159.586 118.34C158.706 118.727 157.646 118.92 156.406 118.92H152.086L153.246 117.74V123H150.646ZM159.806 123L156.266 117.92H159.046L162.606 123H159.806ZM153.246 118.02L152.086 116.78H156.286C157.433 116.78 158.293 116.533 158.866 116.04C159.453 115.547 159.746 114.86 159.746 113.98C159.746 113.087 159.453 112.4 158.866 111.92C158.293 111.44 157.433 111.2 156.286 111.2H152.086L153.246 109.92V118.02ZM167.875 114.82H174.835V116.96H167.875V114.82ZM168.075 120.82H175.975V123H165.475V109H175.695V111.18H168.075V120.82ZM177.094 123L183.394 109H185.954L192.274 123H189.554L184.134 110.38H185.174L179.774 123H177.094ZM179.994 119.76L180.694 117.72H188.254L188.954 119.76H179.994Z" fill="white"/>
<defs>
<clipPath id="clip0_529_55">
<rect width="56" height="56" fill="white" transform="translate(107 32)"/>
</clipPath>
</defs>
</svg>
