<svg width="270" height="160" viewBox="0 0 270 160" fill="none" xmlns="http://www.w3.org/2000/svg">
<rect width="270" height="160" rx="10" fill="#E7DC5A"/>
<path d="M115.129 55.4839C115.628 55.4839 116.032 55.0795 116.032 54.5807C116.032 54.0819 115.628 53.6775 115.129 53.6775C114.63 53.6775 114.226 54.0819 114.226 54.5807C114.226 55.0795 114.63 55.4839 115.129 55.4839Z" fill="white"/>
<path d="M118.742 55.4839C119.241 55.4839 119.645 55.0795 119.645 54.5807C119.645 54.0819 119.241 53.6775 118.742 53.6775C118.243 53.6775 117.839 54.0819 117.839 54.5807C117.839 55.0795 118.243 55.4839 118.742 55.4839Z" fill="white"/>
<path d="M161.194 44.6452H148.548C147.552 44.6452 146.742 45.4554 146.742 46.4517H144.936C144.936 45.4554 144.125 44.6452 143.129 44.6452H142.784L141.477 42.0313C141.17 41.4153 140.551 41.0323 139.861 41.0323H135.558C134.868 41.0323 134.249 41.4153 133.942 42.0304L132.635 44.6452H109.18C107.978 44.6452 107 45.6234 107 46.8256C107 47.4001 107.233 47.9619 107.639 48.3675L108.323 49.0522L107.748 49.7422C107.266 50.3211 107 51.0564 107 51.8105C107 52.673 107.336 53.485 107.947 54.0948L109.042 55.1904C110.04 56.1884 110.613 57.5713 110.613 58.9831C110.613 59.5611 110.52 60.1311 110.337 60.6794L107.262 69.9076C107.088 70.4269 107 70.9688 107 71.518C107 73.6505 108.347 75.5735 110.351 76.3024L117.244 78.8088C117.533 78.9136 117.835 78.9678 118.142 78.9678C119.448 78.9678 120.567 77.9922 120.744 76.697L122.158 66.3226H127.774C129.268 66.3226 130.484 65.1069 130.484 63.6129V59.0968H143.129C144.125 59.0968 144.936 58.2867 144.936 57.2904V51.8711H146.742C146.742 52.8674 147.552 53.6775 148.548 53.6775H161.194C162.19 53.6775 163 52.8674 163 51.8711V46.4518C163 45.4554 162.19 44.6452 161.194 44.6452V44.6452ZM143.129 50.0645H123.258V46.4517H143.129V50.0645H143.129ZM109.832 50.0645L112.843 46.4517H114.226V50.0645H109.832ZM116.032 46.4517H117.839V50.0645H116.032V46.4517ZM119.645 46.4517H121.452V50.0645H119.645V46.4517ZM135.558 42.8388H139.861L140.764 44.6452H134.655L135.558 42.8388ZM108.916 47.0902C108.846 47.0206 108.806 46.9241 108.806 46.8255C108.806 46.6196 108.974 46.4516 109.18 46.4516H110.49L109.484 47.6583L108.916 47.0902ZM112.051 61.251C112.283 60.5546 112.399 59.8302 112.41 59.0968H123.055C122.475 59.6125 121.98 60.2223 121.592 60.9033H117.083C115.525 60.9033 114.148 61.8968 113.656 63.3736L111.105 71.0231L109.04 70.2851L112.051 61.251ZM113.371 69.9356H119.842L119.295 73.9487L112.806 71.631L113.371 69.9356ZM120.581 64.5162H115.179L115.369 63.9453C115.615 63.2065 116.303 62.7097 117.082 62.7097H120.87C120.811 62.949 120.761 63.1929 120.727 63.4422L120.581 64.5162ZM117.862 77.1117L110.969 74.6052C109.876 74.2078 109.094 73.2585 108.875 72.144L119.045 75.7767L118.953 76.4542C118.885 76.9518 118.341 77.2851 117.862 77.1117V77.1117ZM120.088 68.1291H113.973L114.575 66.3227H120.333L120.088 68.1291ZM122.518 63.6852C122.742 62.0423 123.717 60.6549 125.064 59.8492V64.5162H122.404L122.518 63.6852ZM128.677 63.6129C128.677 64.1115 128.273 64.5162 127.774 64.5162H126.871V59.1808C127.165 59.1293 127.466 59.0968 127.774 59.0968H128.677V63.6129ZM143.129 57.2904H112.205C111.895 56.0232 111.249 54.8427 110.319 53.9132L109.224 52.8176C108.969 52.5629 108.827 52.2278 108.813 51.8711H143.129V57.2904ZM144.936 50.0645V48.2581H146.742V50.0645H144.936ZM148.548 51.871V46.4517H161.194L161.195 51.871H148.548Z" fill="white"/>
<path d="M78.88 123V109H81.48V120.8H88.8V123H78.88ZM89.0922 123L95.3922 109H97.9522L104.272 123H101.552L96.1322 110.38H97.1722L91.7722 123H89.0922ZM91.9922 119.76L92.6922 117.72H100.252L100.952 119.76H91.9922ZM110.593 123.2C109.499 123.2 108.453 123.047 107.453 122.74C106.453 122.42 105.659 122.013 105.073 121.52L105.973 119.5C106.533 119.94 107.226 120.307 108.053 120.6C108.879 120.893 109.726 121.04 110.593 121.04C111.326 121.04 111.919 120.96 112.373 120.8C112.826 120.64 113.159 120.427 113.373 120.16C113.586 119.88 113.693 119.567 113.693 119.22C113.693 118.793 113.539 118.453 113.233 118.2C112.926 117.933 112.526 117.727 112.033 117.58C111.553 117.42 111.013 117.273 110.413 117.14C109.826 117.007 109.233 116.853 108.633 116.68C108.046 116.493 107.506 116.26 107.013 115.98C106.533 115.687 106.139 115.3 105.833 114.82C105.526 114.34 105.373 113.727 105.373 112.98C105.373 112.22 105.573 111.527 105.973 110.9C106.386 110.26 107.006 109.753 107.833 109.38C108.673 108.993 109.733 108.8 111.013 108.8C111.853 108.8 112.686 108.907 113.513 109.12C114.339 109.333 115.059 109.64 115.673 110.04L114.853 112.06C114.226 111.687 113.579 111.413 112.913 111.24C112.246 111.053 111.606 110.96 110.993 110.96C110.273 110.96 109.686 111.047 109.233 111.22C108.793 111.393 108.466 111.62 108.253 111.9C108.053 112.18 107.953 112.5 107.953 112.86C107.953 113.287 108.099 113.633 108.393 113.9C108.699 114.153 109.093 114.353 109.573 114.5C110.066 114.647 110.613 114.793 111.213 114.94C111.813 115.073 112.406 115.227 112.993 115.4C113.593 115.573 114.133 115.8 114.613 116.08C115.106 116.36 115.499 116.74 115.793 117.22C116.099 117.7 116.253 118.307 116.253 119.04C116.253 119.787 116.046 120.48 115.633 121.12C115.233 121.747 114.613 122.253 113.773 122.64C112.933 123.013 111.873 123.2 110.593 123.2ZM121.431 114.82H128.391V116.96H121.431V114.82ZM121.631 120.82H129.531V123H119.031V109H129.251V111.18H121.631V120.82ZM132.629 123V109H138.389C139.629 109 140.689 109.2 141.569 109.6C142.463 110 143.149 110.573 143.629 111.32C144.109 112.067 144.349 112.953 144.349 113.98C144.349 115.007 144.109 115.893 143.629 116.64C143.149 117.373 142.463 117.94 141.569 118.34C140.689 118.727 139.629 118.92 138.389 118.92H134.069L135.229 117.74V123H132.629ZM141.789 123L138.249 117.92H141.029L144.589 123H141.789ZM135.229 118.02L134.069 116.78H138.269C139.416 116.78 140.276 116.533 140.849 116.04C141.436 115.547 141.729 114.86 141.729 113.98C141.729 113.087 141.436 112.4 140.849 111.92C140.276 111.44 139.416 111.2 138.269 111.2H134.069L135.229 109.92V118.02ZM156.025 123V111.2H151.385V109H163.265V111.2H158.625V123H156.025ZM162.734 123L169.034 109H171.594L177.914 123H175.194L169.774 110.38H170.814L165.414 123H162.734ZM165.634 119.76L166.334 117.72H173.894L174.594 119.76H165.634ZM186.239 123.2C185.145 123.2 184.139 123.027 183.219 122.68C182.312 122.32 181.519 121.82 180.839 121.18C180.159 120.527 179.632 119.76 179.259 118.88C178.885 118 178.699 117.04 178.699 116C178.699 114.96 178.885 114 179.259 113.12C179.632 112.24 180.159 111.48 180.839 110.84C181.532 110.187 182.339 109.687 183.259 109.34C184.179 108.98 185.185 108.8 186.279 108.8C187.465 108.8 188.532 108.993 189.479 109.38C190.439 109.767 191.245 110.333 191.899 111.08L190.259 112.68C189.712 112.133 189.119 111.733 188.479 111.48C187.852 111.213 187.159 111.08 186.399 111.08C185.665 111.08 184.985 111.2 184.359 111.44C183.732 111.68 183.192 112.02 182.739 112.46C182.285 112.9 181.932 113.42 181.679 114.02C181.439 114.62 181.319 115.28 181.319 116C181.319 116.707 181.439 117.36 181.679 117.96C181.932 118.56 182.285 119.087 182.739 119.54C183.192 119.98 183.725 120.32 184.339 120.56C184.952 120.8 185.632 120.92 186.379 120.92C187.072 120.92 187.739 120.813 188.379 120.6C189.032 120.373 189.652 120 190.239 119.48L191.719 121.42C190.985 122.007 190.132 122.453 189.159 122.76C188.199 123.053 187.225 123.2 186.239 123.2ZM189.259 121.08V115.84H191.719V121.42L189.259 121.08Z" fill="white"/>
</svg>
