<svg width="200" height="48" viewBox="0 0 200 48" fill="none" xmlns="http://www.w3.org/2000/svg">
<path d="M6.97268 5.75456H0V47.593H6.97268V5.75456Z" fill="#A2CF5F"/>
<path d="M17.4317 5.75456H10.459V47.593H17.4317V5.75456Z" fill="#F36D21"/>
<path d="M27.8931 5.75456H20.9204V47.593H27.8931V5.75456Z" fill="#54C8E8"/>
<path d="M38.3522 5.75456H31.3795V47.593H38.3522V5.75456Z" fill="#F5E849"/>
<path d="M76.7043 5.75456H69.7316V47.593H76.7043V5.75456Z" fill="#F89C6E"/>
<path d="M87.1634 5.75456H80.1907V47.593H87.1634V5.75456Z" fill="#F0483E"/>
<path d="M48.8112 47.593H41.8385V5.75456H52.2975L48.8112 47.593Z" fill="#F78F20"/>
<path d="M59.2726 47.593H66.2452V5.75456H55.7838L59.2726 47.593Z" fill="#E72076"/>
<path d="M102.841 22.9256C101.727 22.6376 100.676 22.1468 99.7406 21.478L101.111 18.4404C101.919 19.0196 102.815 19.4652 103.765 19.7602C104.762 20.0871 105.804 20.2549 106.853 20.2572C108 20.2572 108.847 20.0875 109.394 19.7481C109.641 19.6175 109.848 19.4221 109.993 19.1828C110.138 18.9436 110.215 18.6695 110.216 18.3898C110.22 18.1923 110.178 17.9966 110.095 17.8177C110.011 17.6387 109.888 17.4812 109.734 17.3571C109.366 17.0583 108.943 16.8337 108.489 16.6961C107.982 16.5352 107.298 16.3527 106.436 16.1484C105.329 15.8997 104.239 15.5839 103.171 15.2026C102.331 14.8877 101.584 14.3648 101 13.6826C100.394 12.9862 100.09 12.0565 100.09 10.8936C100.08 9.91466 100.367 8.95572 100.913 8.14308C101.532 7.26469 102.393 6.58494 103.391 6.18639C104.496 5.70385 105.845 5.46258 107.437 5.46258C108.537 5.46112 109.634 5.59482 110.701 5.86068C111.685 6.09443 112.625 6.48116 113.488 7.00671L112.243 10.0708C110.783 9.19899 109.119 8.7264 107.418 8.70041C106.292 8.70041 105.458 8.88297 104.916 9.24809C104.666 9.39798 104.46 9.61037 104.318 9.86426C104.176 10.1181 104.103 10.4047 104.105 10.6957C104.105 11.2916 104.416 11.738 105.039 12.0275C105.958 12.4094 106.914 12.6972 107.891 12.8864C108.996 13.1373 110.085 13.4531 111.153 13.8322C111.989 14.1433 112.735 14.6573 113.324 15.3281C113.932 16.0085 114.235 16.9293 114.234 18.0906C114.24 19.0621 113.947 20.012 113.396 20.8121C112.769 21.6922 111.9 22.3717 110.894 22.7688C109.604 23.2833 108.223 23.5295 106.834 23.4926C105.482 23.4967 104.137 23.3082 102.838 22.9329" fill="black"/>
<path d="M131.306 19.9484V23.1862H117.809V5.75456H130.983V8.99238H121.819V12.7779H129.911V15.9144H121.819V19.9484H131.306Z" fill="black"/>
<path d="M152.316 5.75456L144.771 23.1862H140.788L133.265 5.75456H137.625L142.928 18.2064L148.308 5.75456H152.316Z" fill="black"/>
<path d="M154.895 5.75454H158.929V23.1862H154.895V5.75454ZM155.404 3.61207C155.21 3.41114 155.058 3.17325 154.958 2.91255C154.857 2.65185 154.811 2.37365 154.82 2.09448C154.812 1.81877 154.86 1.54435 154.96 1.28741C155.061 1.03048 155.211 0.796249 155.404 0.598608C155.811 0.214149 156.35 0 156.91 0C157.471 0 158.01 0.214149 158.417 0.598608C158.61 0.795726 158.762 1.0298 158.863 1.28682C158.963 1.54384 159.011 1.81853 159.003 2.09448C159.013 2.37387 158.966 2.6523 158.865 2.91306C158.764 3.17383 158.612 3.41158 158.417 3.61207C158.01 3.99653 157.471 4.21068 156.91 4.21068C156.35 4.21068 155.811 3.99653 155.404 3.61207Z" fill="black"/>
<path d="M179.666 5.75456V23.1862H176.353L167.665 12.6018V23.1862H163.679V5.75456H167.016L175.683 16.339V5.75456H179.666Z" fill="black"/>
<path d="M187.997 22.3273C186.599 21.5855 185.431 20.4749 184.619 19.116C183.813 17.701 183.389 16.1003 183.389 14.4716C183.389 12.8429 183.813 11.2422 184.619 9.82717C185.43 8.46704 186.598 7.35545 187.997 6.61348C189.373 5.92033 190.882 5.52944 192.421 5.46702C193.961 5.40461 195.496 5.6721 196.924 6.25158C198.116 6.76236 199.17 7.54776 200 8.54363L197.411 10.9346C196.881 10.2865 196.211 9.76628 195.453 9.41249C194.694 9.0587 193.865 8.88048 193.027 8.89106C192.017 8.87153 191.019 9.1169 190.132 9.60279C189.298 10.062 188.611 10.7479 188.151 11.5812C187.683 12.4745 187.439 13.468 187.439 14.4764C187.439 15.4849 187.683 16.4783 188.151 17.3717C188.612 18.205 189.299 18.8915 190.132 19.3525C191.019 19.8362 192.017 20.0806 193.027 20.0618C193.867 20.0713 194.698 19.8901 195.457 19.5319C196.216 19.1738 196.885 18.648 197.411 17.9941L200 20.3851C199.173 21.3958 198.114 22.1906 196.912 22.7013C195.614 23.2453 194.218 23.5163 192.81 23.4975C191.13 23.5226 189.471 23.1243 187.985 22.3394" fill="black"/>
<path d="M116.975 47.593L116.948 37.134L111.819 45.7497H109.999L104.897 37.3584V47.593H101.111V30.1613H104.448L110.972 40.9943L117.397 30.1613H120.709L120.76 47.593H116.975Z" fill="black"/>
<path d="M135.835 40.794L133.07 34.1205L130.305 40.794H135.835ZM137.104 43.8582H129.011L127.47 47.593H123.337L131.106 30.1613H135.091L142.884 47.593H138.653L137.104 43.8582Z" fill="black"/>
<path d="M145.442 30.1613H149.476V44.3069H158.217V47.593H145.442V30.1613Z" fill="black"/>
<path d="M160.994 30.1613H165.028V44.3069H173.769V47.593H160.994V30.1613Z" fill="black"/>
</svg>
