<svg width="270" height="160" viewBox="0 0 270 160" fill="none" xmlns="http://www.w3.org/2000/svg">
<rect width="270" height="160" rx="10" fill="#D53876"/>
<g clip-path="url(#clip0_529_58)">
<path d="M161.739 82.715L158.387 78.3938C155.223 74.314 151.201 71.0024 146.623 68.6812C149.095 66.2232 150.749 63.0351 151.324 59.5783L154.078 43.0204C154.153 42.5705 153.941 42.1214 153.546 41.8937L136.664 32.1465C136.269 31.9184 135.774 31.9594 135.422 32.2491L122.459 42.9135C118.974 45.7808 116.773 50.0054 116.42 54.5047C116.417 54.5428 116.415 54.5804 116.412 54.618C116.032 53.4648 115.706 52.2899 115.441 51.0957C115.059 49.3825 113.567 48.1862 111.812 48.1862C110.745 48.1862 109.729 48.6451 109.024 49.4449C108.318 50.2447 107.99 51.3102 108.123 52.3685C109.202 60.9399 112.718 68.9593 118.292 75.5599C118.945 76.3332 119.64 77.071 120.367 77.7747L118.226 81.4832L112.369 78.1011C111.845 77.7991 111.176 77.9785 110.875 78.5015C110.573 79.0248 110.752 79.6935 111.275 79.9955L124.885 87.853C125.057 87.9526 125.245 87.9996 125.43 87.9996C125.808 87.9996 126.176 87.8035 126.379 87.4527C126.681 86.9297 126.501 86.2607 125.978 85.9586L120.121 82.577L122.03 79.2705C124.335 81.1931 126.923 82.7778 129.689 83.9437L139.106 87.9137C139.245 87.9722 139.389 88 139.531 88C139.957 88 140.363 87.7488 140.539 87.3309C140.774 86.7742 140.513 86.1329 139.957 85.8979L130.539 81.9284C126.47 80.2126 122.812 77.5226 119.964 74.1487C114.663 67.872 111.319 60.2461 110.293 52.0955C110.237 51.6533 110.369 51.2261 110.664 50.8919C110.958 50.5578 111.366 50.3737 111.812 50.3737C112.534 50.3737 113.149 50.8663 113.305 51.5717C114.384 56.4128 116.367 60.966 119.134 65.0163C119.282 65.2402 119.437 65.4602 119.596 65.6777C120.835 67.4118 122.219 69.0499 123.742 70.5726L127.901 74.7319C128.563 75.3941 129.443 75.7585 130.379 75.7585C131.316 75.7585 132.196 75.3941 132.858 74.7319C134.225 73.3651 134.225 71.1413 132.858 69.7745L125.838 62.754C125.442 62.358 125.224 61.8316 125.224 61.2719C125.224 60.7122 125.442 60.1858 125.838 59.7902C126.655 58.9729 127.984 58.9729 128.802 59.7902L130.379 61.368C133.858 64.8471 137.952 67.5033 142.547 69.2627C148.12 71.3976 153 75.0185 156.658 79.7349L160.011 84.0561C160.381 84.5333 161.068 84.62 161.545 84.2496C162.023 83.8792 162.109 83.1922 161.739 82.715V82.715ZM123.849 44.6029L136.226 34.4199L139.004 36.0233L133.128 40.8568C132.662 41.2409 132.595 41.93 132.979 42.3966C133.195 42.6593 133.508 42.7952 133.824 42.7952C134.069 42.7952 134.315 42.7136 134.519 42.5461L141.027 37.1914L151.796 43.4087L149.954 54.4821C149.125 55.0743 143.542 58.6123 134.616 53.8066C128.943 50.7527 124.453 50.8608 121.684 51.4892C120.603 51.7345 119.692 52.0763 118.962 52.4181C119.698 49.3765 121.412 46.6075 123.849 44.6029ZM130.379 73.571C130.027 73.571 129.696 73.4339 129.448 73.1848L128.581 72.3188C128.673 72.3551 128.764 72.3918 128.856 72.4273C129.659 72.7362 130.489 72.9823 131.33 73.1639C131.324 73.1707 131.318 73.1784 131.311 73.1852C131.063 73.4339 130.731 73.571 130.379 73.571ZM131.926 59.821L130.348 58.2431C128.678 56.573 125.961 56.573 124.291 58.2431C123.482 59.0519 123.036 60.1277 123.036 61.2719C123.036 62.4161 123.482 63.4914 124.291 64.3006L130.75 70.7602C130.376 70.6499 130.005 70.5256 129.641 70.3855C127.578 69.5921 125.66 68.4851 123.941 67.0948C122.965 66.3049 122.108 65.4008 121.381 64.413C121.236 64.2101 121.093 64.0054 120.953 63.7999C119.283 61.2668 118.429 58.2431 118.572 55.1452C119.841 54.2586 125.188 51.2158 133.579 55.7326C137.505 57.8462 140.879 58.4777 143.509 58.4777C144.672 58.4777 145.689 58.3547 146.544 58.1812C147.736 57.9398 148.725 57.5839 149.497 57.2336L149.166 59.2194C148.622 62.4921 146.964 65.4884 144.488 67.6883C144.105 67.5255 143.718 67.3691 143.329 67.2196C139.023 65.5704 135.186 63.0813 131.926 59.821V59.821Z" fill="white"/>
<path d="M130.868 45.2267C131.156 45.2267 131.438 45.1096 131.641 44.9062C131.845 44.7029 131.962 44.4205 131.962 44.1329C131.962 43.8454 131.845 43.563 131.641 43.3596C131.438 43.1562 131.157 43.0392 130.868 43.0392C130.581 43.0392 130.298 43.1562 130.095 43.3596C129.891 43.563 129.774 43.8454 129.774 44.1329C129.774 44.4205 129.891 44.7029 130.095 44.9062C130.298 45.1096 130.581 45.2267 130.868 45.2267Z" fill="white"/>
</g>
<path d="M65.88 123V109H68.48V120.8H75.8V123H65.88ZM84.3588 123.2C83.2654 123.2 82.2588 123.02 81.3388 122.66C80.4188 122.3 79.6187 121.8 78.9387 121.16C78.2587 120.507 77.7321 119.747 77.3587 118.88C76.9854 118 76.7987 117.04 76.7987 116C76.7987 114.96 76.9854 114.007 77.3587 113.14C77.7321 112.26 78.2587 111.5 78.9387 110.86C79.6187 110.207 80.4188 109.7 81.3388 109.34C82.2588 108.98 83.2588 108.8 84.3388 108.8C85.4321 108.8 86.4321 108.98 87.3388 109.34C88.2588 109.7 89.0588 110.207 89.7388 110.86C90.4188 111.5 90.9454 112.26 91.3188 113.14C91.6921 114.007 91.8788 114.96 91.8788 116C91.8788 117.04 91.6921 118 91.3188 118.88C90.9454 119.76 90.4188 120.52 89.7388 121.16C89.0588 121.8 88.2588 122.3 87.3388 122.66C86.4321 123.02 85.4388 123.2 84.3588 123.2ZM84.3388 120.92C85.0454 120.92 85.6988 120.8 86.2988 120.56C86.8988 120.32 87.4187 119.98 87.8587 119.54C88.2988 119.087 88.6388 118.567 88.8787 117.98C89.1321 117.38 89.2588 116.72 89.2588 116C89.2588 115.28 89.1321 114.627 88.8787 114.04C88.6388 113.44 88.2988 112.92 87.8587 112.48C87.4187 112.027 86.8988 111.68 86.2988 111.44C85.6988 111.2 85.0454 111.08 84.3388 111.08C83.6321 111.08 82.9788 111.2 82.3788 111.44C81.7921 111.68 81.2721 112.027 80.8187 112.48C80.3788 112.92 80.0321 113.44 79.7787 114.04C79.5387 114.627 79.4188 115.28 79.4188 116C79.4188 116.707 79.5387 117.36 79.7787 117.96C80.0321 118.56 80.3788 119.087 80.8187 119.54C81.2588 119.98 81.7788 120.32 82.3788 120.56C82.9788 120.8 83.6321 120.92 84.3388 120.92ZM100.855 123.2C98.9347 123.2 97.428 122.66 96.3347 121.58C95.2547 120.5 94.7147 118.94 94.7147 116.9V109H97.3147V116.8C97.3147 118.24 97.6214 119.287 98.2347 119.94C98.8614 120.593 99.7414 120.92 100.875 120.92C102.008 120.92 102.881 120.593 103.495 119.94C104.108 119.287 104.415 118.24 104.415 116.8V109H106.975V116.9C106.975 118.94 106.428 120.5 105.335 121.58C104.255 122.66 102.761 123.2 100.855 123.2ZM110.816 123V109H112.956L121.736 119.78H120.676V109H123.256V123H121.116L112.336 112.22H113.396V123H110.816ZM133.747 123.2C132.654 123.2 131.647 123.027 130.727 122.68C129.821 122.32 129.027 121.82 128.347 121.18C127.667 120.527 127.141 119.76 126.767 118.88C126.394 118 126.207 117.04 126.207 116C126.207 114.96 126.394 114 126.767 113.12C127.141 112.24 127.667 111.48 128.347 110.84C129.041 110.187 129.847 109.687 130.767 109.34C131.687 108.98 132.694 108.8 133.787 108.8C134.974 108.8 136.041 108.993 136.987 109.38C137.947 109.767 138.754 110.333 139.407 111.08L137.767 112.68C137.221 112.133 136.627 111.733 135.987 111.48C135.361 111.213 134.667 111.08 133.907 111.08C133.174 111.08 132.494 111.2 131.867 111.44C131.241 111.68 130.701 112.02 130.247 112.46C129.794 112.9 129.441 113.42 129.187 114.02C128.947 114.62 128.827 115.28 128.827 116C128.827 116.707 128.947 117.36 129.187 117.96C129.441 118.56 129.794 119.087 130.247 119.54C130.701 119.98 131.234 120.32 131.847 120.56C132.461 120.8 133.141 120.92 133.887 120.92C134.581 120.92 135.247 120.813 135.887 120.6C136.541 120.373 137.161 120 137.747 119.48L139.227 121.42C138.494 122.007 137.641 122.453 136.667 122.76C135.707 123.053 134.734 123.2 133.747 123.2ZM136.767 121.08V115.84H139.227V121.42L136.767 121.08ZM145.257 114.82H152.217V116.96H145.257V114.82ZM145.457 120.82H153.357V123H142.857V109H153.077V111.18H145.457V120.82ZM162.182 123V109H168.742C170.422 109 171.702 109.333 172.582 110C173.462 110.653 173.902 111.533 173.902 112.64C173.902 113.387 173.729 114.027 173.382 114.56C173.036 115.08 172.569 115.487 171.982 115.78C171.409 116.06 170.782 116.2 170.102 116.2L170.462 115.48C171.249 115.48 171.956 115.627 172.582 115.92C173.209 116.2 173.702 116.613 174.062 117.16C174.436 117.707 174.622 118.387 174.622 119.2C174.622 120.4 174.162 121.333 173.242 122C172.322 122.667 170.956 123 169.142 123H162.182ZM164.782 120.96H168.982C169.956 120.96 170.702 120.8 171.222 120.48C171.742 120.16 172.002 119.647 172.002 118.94C172.002 118.247 171.742 117.74 171.222 117.42C170.702 117.087 169.956 116.92 168.982 116.92H164.582V114.9H168.462C169.369 114.9 170.062 114.74 170.542 114.42C171.036 114.1 171.282 113.62 171.282 112.98C171.282 112.327 171.036 111.84 170.542 111.52C170.062 111.2 169.369 111.04 168.462 111.04H164.782V120.96ZM175.617 123L181.917 109H184.477L190.797 123H188.077L182.657 110.38H183.697L178.297 123H175.617ZM178.517 119.76L179.217 117.72H186.777L187.477 119.76H178.517ZM192.778 123V109H198.538C199.778 109 200.838 109.2 201.718 109.6C202.611 110 203.298 110.573 203.778 111.32C204.258 112.067 204.498 112.953 204.498 113.98C204.498 115.007 204.258 115.893 203.778 116.64C203.298 117.373 202.611 117.94 201.718 118.34C200.838 118.727 199.778 118.92 198.538 118.92H194.218L195.378 117.74V123H192.778ZM201.938 123L198.398 117.92H201.178L204.738 123H201.938ZM195.378 118.02L194.218 116.78H198.418C199.564 116.78 200.424 116.533 200.998 116.04C201.584 115.547 201.878 114.86 201.878 113.98C201.878 113.087 201.584 112.4 200.998 111.92C200.424 111.44 199.564 111.2 198.418 111.2H194.218L195.378 109.92V118.02Z" fill="white"/>
<defs>
<clipPath id="clip0_529_58">
<rect width="56" height="56" fill="white" transform="translate(107 32)"/>
</clipPath>
</defs>
</svg>
