<svg width="32" height="32" viewBox="0 0 32 32" fill="none" xmlns="http://www.w3.org/2000/svg">
<circle cx="16" cy="16" r="15.75" stroke="#D53876" stroke-width="0.5"/>
<path d="M25 10.7314C24.3306 11.025 23.6174 11.2196 22.8737 11.3141C23.6388 10.8574 24.2226 10.1396 24.4971 9.2745C23.7839 9.69975 22.9964 10.0001 22.1571 10.1678C21.4799 9.44663 20.5146 9 19.4616 9C17.4186 9 15.7739 10.6583 15.7739 12.6911C15.7739 12.9836 15.7986 13.2649 15.8594 13.5326C12.7915 13.383 10.0769 11.9126 8.25325 9.67275C7.93487 10.2251 7.74813 10.8574 7.74813 11.538C7.74813 12.816 8.40625 13.9489 9.38725 14.6047C8.79437 14.5935 8.21275 14.4214 7.72 14.1502C7.72 14.1615 7.72 14.1761 7.72 14.1907C7.72 15.984 8.99912 17.4735 10.6765 17.8166C10.3761 17.8988 10.0487 17.9381 9.709 17.9381C9.47275 17.9381 9.23425 17.9246 9.01038 17.8751C9.4885 19.3365 10.8453 20.4109 12.4585 20.4457C11.203 21.4279 9.60888 22.0196 7.88313 22.0196C7.5805 22.0196 7.29025 22.0061 7 21.969C8.63462 23.0231 10.5719 23.625 12.661 23.625C19.4515 23.625 23.164 18 23.164 13.1242C23.164 12.9611 23.1584 12.8036 23.1505 12.6473C23.8829 12.1275 24.4982 11.4784 25 10.7314Z" fill="#D53876"/>
</svg>
