<svg width="24" height="25" viewBox="0 0 24 25" fill="none" xmlns="http://www.w3.org/2000/svg">
<path d="M23.75 12.9556C23.75 19.4296 18.4899 24.6789 12 24.6789C5.51013 24.6789 0.25 19.4296 0.25 12.9556C0.25 6.48146 5.51013 1.23222 12 1.23222C18.4899 1.23222 23.75 6.48146 23.75 12.9556Z" stroke="white" stroke-width="0.5"/>
<path fill-rule="evenodd" clip-rule="evenodd" d="M8.78931 7.32941C8.78931 8.0699 8.22424 8.66917 7.34057 8.66917C6.49133 8.66917 5.92627 8.0699 5.94375 7.32941C5.92627 6.55292 6.49132 5.97111 7.3575 5.97111C8.22423 5.97111 8.77237 6.55292 8.78931 7.32941ZM6.0148 18.3528V9.72756H8.70132V18.3523H6.0148V18.3528Z" fill="white"/>
<path fill-rule="evenodd" clip-rule="evenodd" d="M10.855 12.4804C10.855 11.4045 10.8195 10.4873 10.7839 9.72886H13.1175L13.2415 10.9105H13.2946C13.6481 10.3636 14.5318 9.53529 15.9637 9.53529C17.7311 9.53529 19.0569 10.6995 19.0569 13.2383V18.3541H16.3703V13.5742C16.3703 12.4624 15.9817 11.7044 15.0095 11.7044C14.2668 11.7044 13.8252 12.2159 13.6487 12.7094C13.5777 12.886 13.5427 13.1325 13.5427 13.3801V18.3541H10.8561V12.4804H10.855Z" fill="white"/>
</svg>
