<svg width="24" height="25" viewBox="0 0 24 25" fill="none" xmlns="http://www.w3.org/2000/svg">
<path d="M23.75 12.9556C23.75 19.4296 18.4899 24.6789 12 24.6789C5.51013 24.6789 0.25 19.4296 0.25 12.9556C0.25 6.48146 5.51013 1.23222 12 1.23222C18.4899 1.23222 23.75 6.48146 23.75 12.9556Z" stroke="white" stroke-width="0.5"/>
<path d="M12 7.22958C13.8691 7.22958 14.0905 7.23671 14.8286 7.27031C15.5111 7.30136 15.8817 7.41514 16.1284 7.51079C16.4551 7.63749 16.6883 7.78884 16.9333 8.03324C17.1782 8.27766 17.3299 8.51032 17.4569 8.83634C17.5528 9.08245 17.6668 9.45227 17.6979 10.1332C17.7316 10.8697 17.7387 11.0906 17.7387 12.9555C17.7387 14.8205 17.7316 15.0414 17.6979 15.7779C17.6668 16.4588 17.5528 16.8286 17.4569 17.0748C17.3299 17.4008 17.1782 17.6334 16.9333 17.8778C16.6883 18.1222 16.4551 18.2736 16.1284 18.4003C15.8817 18.496 15.5111 18.6097 14.8286 18.6408C14.0906 18.6744 13.8692 18.6815 12 18.6815C10.1308 18.6815 9.90944 18.6744 9.1714 18.6408C8.48891 18.6097 8.11826 18.496 7.8716 18.4003C7.54486 18.2736 7.31167 18.1222 7.06674 17.8778C6.8218 17.6334 6.67008 17.4008 6.5431 17.0748C6.44723 16.8286 6.3332 16.4588 6.30208 15.7779C6.2684 15.0414 6.26126 14.8205 6.26126 12.9555C6.26126 11.0906 6.2684 10.8697 6.30208 10.1332C6.3332 9.45227 6.44723 9.08245 6.5431 8.83634C6.67008 8.51032 6.82177 8.27766 7.06674 8.03326C7.31167 7.78884 7.54486 7.63749 7.8716 7.51079C8.11826 7.41514 8.48891 7.30136 9.1714 7.27031C9.90952 7.23671 10.1309 7.22958 12 7.22958ZM12 5.97113C10.0989 5.97113 9.86053 5.97917 9.11391 6.01316C8.36884 6.04707 7.85999 6.16515 7.41473 6.33779C6.95442 6.51628 6.56405 6.7551 6.17487 7.14339C5.78572 7.5317 5.54637 7.9212 5.3675 8.38049C5.19445 8.82475 5.07611 9.33247 5.04212 10.0759C5.00806 10.8208 5 11.0587 5 12.9555C5 14.8524 5.00806 15.0903 5.04212 15.8352C5.07611 16.5786 5.19445 17.0863 5.3675 17.5306C5.54637 17.9899 5.78572 18.3794 6.17487 18.7677C6.56405 19.156 6.95442 19.3948 7.41473 19.5733C7.85999 19.7459 8.36884 19.864 9.11391 19.8979C9.86053 19.9319 10.0989 19.94 12 19.94C13.9011 19.94 14.1395 19.9319 14.8861 19.8979C15.6312 19.864 16.14 19.7459 16.5853 19.5733C17.0456 19.3948 17.436 19.156 17.8251 18.7677C18.2143 18.3794 18.4536 17.9899 18.6325 17.5306C18.8055 17.0863 18.9239 16.5786 18.9579 15.8352C18.9919 15.0903 19 14.8524 19 12.9555C19 11.0587 18.9919 10.8208 18.9579 10.0759C18.9239 9.33247 18.8055 8.82475 18.6325 8.38049C18.4536 7.9212 18.2143 7.5317 17.8251 7.14339C17.436 6.7551 17.0456 6.51628 16.5853 6.33779C16.14 6.16515 15.6312 6.04707 14.8861 6.01316C14.1395 5.97917 13.9011 5.97113 12 5.97113Z" fill="white"/>
<path d="M12.0033 9.37225C10.018 9.37225 8.40869 10.978 8.40869 12.9588C8.40869 14.9397 10.018 16.5454 12.0033 16.5454C13.9886 16.5454 15.5979 14.9397 15.5979 12.9588C15.5979 10.978 13.9886 9.37225 12.0033 9.37225ZM12.0033 15.287C10.7146 15.287 9.66995 14.2446 9.66995 12.9588C9.66995 11.673 10.7146 10.6307 12.0033 10.6307C13.292 10.6307 14.3366 11.673 14.3366 12.9588C14.3366 14.2446 13.292 15.287 12.0033 15.287Z" fill="white"/>
<path d="M16.5796 9.22831C16.5796 9.69118 16.2035 10.0664 15.7395 10.0664C15.2755 10.0664 14.8994 9.69118 14.8994 9.22831C14.8994 8.76542 15.2755 8.39017 15.7395 8.39017C16.2035 8.39017 16.5796 8.76542 16.5796 9.22831Z" fill="white"/>
</svg>
