<svg width="24" height="25" viewBox="0 0 24 25" fill="none" xmlns="http://www.w3.org/2000/svg">
<path d="M23.75 12.9556C23.75 19.4296 18.4899 24.6789 12 24.6789C5.51013 24.6789 0.25 19.4296 0.25 12.9556C0.25 6.48146 5.51013 1.23222 12 1.23222C18.4899 1.23222 23.75 6.48146 23.75 12.9556Z" stroke="#F8F9FA" stroke-width="0.5"/>
<path fill-rule="evenodd" clip-rule="evenodd" d="M14.6618 8.21667C14.2857 8.14161 13.7777 8.08554 13.4582 8.08554C12.5931 8.08554 12.5369 8.46083 12.5369 9.06131V10.1302H14.6994L14.5109 12.3445H12.5369V19.0796H9.82918V12.3445H8.4375V10.1302H9.82918V8.76063C9.82918 6.88458 10.7129 5.83375 12.9316 5.83375C13.7024 5.83375 14.2666 5.94634 14.9999 6.09646L14.6618 8.21667Z" fill="white"/>
</svg>
