<svg width="24" height="24" viewBox="0 0 24 24" fill="none" xmlns="http://www.w3.org/2000/svg">
<circle cx="12" cy="12" r="11.75" stroke="white" stroke-width="0.5"/>
<path d="M19 7.31252C18.4794 7.54039 17.9246 7.69143 17.3462 7.76476C17.9412 7.4103 18.3954 6.85329 18.6089 6.18191C18.0541 6.51193 17.4416 6.74503 16.7889 6.87512C16.2621 6.31549 15.5114 5.96889 14.6924 5.96889C13.1034 5.96889 11.8241 7.25577 11.8241 8.83338C11.8241 9.06038 11.8434 9.27864 11.8906 9.48643C9.5045 9.37031 7.39313 8.22923 5.97475 6.49097C5.72712 6.91964 5.58188 7.4103 5.58188 7.9385C5.58188 8.93029 6.09375 9.80946 6.85675 10.3184C6.39562 10.3097 5.94325 10.1761 5.56 9.96573C5.56 9.97447 5.56 9.98582 5.56 9.99716C5.56 11.3888 6.55487 12.5447 7.8595 12.811C7.62587 12.8748 7.37125 12.9053 7.107 12.9053C6.92325 12.9053 6.73775 12.8948 6.56362 12.8564C6.9355 13.9905 7.99075 14.8243 9.2455 14.8514C8.269 15.6135 7.02912 16.0728 5.68688 16.0728C5.4515 16.0728 5.22575 16.0623 5 16.0335C6.27137 16.8515 7.77812 17.3186 9.403 17.3186C14.6845 17.3186 17.572 12.9533 17.572 9.16951C17.572 9.04292 17.5676 8.92069 17.5615 8.79933C18.1311 8.39598 18.6097 7.89223 19 7.31252Z" fill="white"/>
</svg>
