<svg width="32" height="32" viewBox="0 0 32 32" fill="none" xmlns="http://www.w3.org/2000/svg">
<circle cx="16" cy="16" r="15.75" stroke="#D53876" stroke-width="0.5"/>
<path fill-rule="evenodd" clip-rule="evenodd" d="M10.0158 15.3332C10.0158 13.9456 10.4177 12.5891 11.1707 11.4354C11.9236 10.2816 12.9939 9.38236 14.246 8.85135C15.4982 8.32033 16.876 8.1814 18.2053 8.4521C19.5345 8.72281 20.7555 9.39101 21.7139 10.3722C22.6722 11.3534 23.3249 12.6035 23.5893 13.9644C23.8537 15.3254 23.718 16.736 23.1993 18.018C22.6807 19.3 21.8024 20.3957 20.6755 21.1666C19.5486 21.9376 18.2237 22.349 16.8684 22.349C15.5719 22.3514 14.3017 21.9752 13.2067 21.2645C13.1093 21.2014 12.9998 21.1604 12.8856 21.1443C12.7715 21.1282 12.6552 21.1374 12.5448 21.1712L10.223 21.8802L11.0977 19.7862C11.1485 19.6643 11.17 19.5316 11.1601 19.3994C11.1503 19.2673 11.1095 19.1394 11.0413 19.0268C10.3689 17.918 10.0136 16.6383 10.0158 15.3332ZM16.8684 6.6665C12.1933 6.6665 8.40343 10.5467 8.40343 15.3332C8.40343 16.8502 8.78476 18.2782 9.4555 19.5204L8.06483 22.8501C8.00464 22.9943 7.98584 23.1531 8.01062 23.3079C8.0354 23.4627 8.10275 23.607 8.20477 23.724C8.30679 23.841 8.43926 23.9258 8.58666 23.9686C8.73407 24.0113 8.89031 24.0101 9.03709 23.9652L12.6649 22.8575C13.9444 23.6081 15.3938 24.002 16.8684 23.9998C21.5435 23.9998 25.3333 20.1196 25.3333 15.3332C25.3333 10.5467 21.5435 6.6665 16.8684 6.6665ZM18.717 17.1342L17.6568 17.8985C17.0727 17.5544 16.5364 17.1316 16.0622 16.6414C15.5531 16.1209 15.1129 15.5343 14.7529 14.8965L15.4261 14.3113C15.5664 14.1895 15.6617 14.0222 15.6963 13.8372C15.731 13.6523 15.7027 13.4607 15.6164 13.2944L14.7586 11.6436C14.7015 11.534 14.621 11.439 14.523 11.3657C14.4251 11.2923 14.3122 11.2426 14.1929 11.2201C14.0735 11.1977 13.9508 11.2031 13.8338 11.236C13.7167 11.2689 13.6085 11.3284 13.5171 11.4101L13.2623 11.637C12.6504 12.1835 12.2884 13.0815 12.5883 13.9911C13.0708 15.4298 13.8693 16.7361 14.9222 17.8094C16.3839 19.3058 17.8689 19.8951 18.7379 20.1246C19.4377 20.3087 20.0996 20.0619 20.5664 19.6723L21.0428 19.2744C21.1433 19.1906 21.2225 19.0831 21.2738 18.9613C21.325 18.8394 21.3468 18.7066 21.3373 18.5743C21.3279 18.442 21.2873 18.3139 21.2192 18.201C21.1511 18.0881 21.0574 17.9937 20.9461 17.9257L19.5933 17.1003C19.4595 17.0186 19.3055 16.9783 19.1498 16.9843C18.9942 16.9903 18.8443 17.0424 18.717 17.1342Z" fill="#D53876"/>
</svg>
